<?xml version="1.0" standalone="no"?>
<!DOCTYPE svg PUBLIC "-//W3C//DTD SVG 1.1//EN" "http://www.w3.org/Graphics/SVG/1.1/DTD/svg11.dtd" >
<svg xmlns="http://www.w3.org/2000/svg">
  <metadata>Created by iconfont</metadata>
  <defs>
  <font id="iconfont" horiz-adv-x="1024">
    <font-face
      font-family="iconfont"
      font-weight="400"
      font-stretch="normal"
      units-per-em="1024"
      ascent="896"
      descent="-128"
    />
      <missing-glyph />
      
      <glyph glyph-name="dongtaiweixuanzhong" unicode="&#58982;" d="M889.018182 332.8c2.327273 4.654545 104.727273 134.981818 114.036363 176.872727 2.327273 18.618182-9.309091 37.236364-13.963636 44.218182-34.909091 48.872727-100.072727 104.727273-153.6 134.981818-30.254545 16.290909-62.836364 25.6-95.418182 34.909091-34.909091 9.309091-69.818182 13.963636-102.4 13.963637-6.981818 0-16.290909-4.654545-20.945454-9.309091-6.981818-4.654545-9.309091-11.636364-9.309091-20.945455 0-6.981818 4.654545-13.963636 9.309091-18.618182 4.654545-6.981818 11.636364-9.309091 20.945454-9.309091 25.6 0 55.854545-4.654545 88.436364-6.981818 27.927273-6.981818 55.854545-18.618182 83.781818-32.581818s128-86.109091 130.327273-123.345455c-4.654545-23.272727-109.381818-165.236364-109.381818-165.236363-6.981818-9.309091-4.654545-16.290909-2.327273-25.6 18.618182-55.854545 16.290909-144.290909 6.981818-186.181818-6.981818-27.927273-13.963636-53.527273-25.6-79.127273-11.636364-27.927273-32.581818-65.163636-51.2-83.781818-11.636364 2.327273-114.036364 48.872727-125.672727 51.2-6.981818 0-13.963636 0-18.618182-2.327273-32.581818-16.290909-148.945455-67.490909-188.509091-69.818182-25.6-2.327273-53.527273-2.327273-81.454545 0-27.927273 2.327273-69.818182 11.636364-86.109091 25.6-13.963636 11.636364-4.654545 141.963636-13.963637 158.254546s-69.818182 69.818182-83.781818 90.763636c-18.618182 23.272727-32.581818 46.545455-44.218182 72.145455-13.963636 25.6-23.272727 53.527273-27.927272 81.454545-4.654545 30.254545-6.981818 88.436364-4.654546 93.090909 0 0 158.254545 67.490909 165.236364 76.8 13.963636 11.636364 44.218182 83.781818 60.509091 109.381818s39.563636 51.2 60.509091 69.818182c25.6 20.945455 51.2 37.236364 83.781818 53.527273 25.6 13.963636 53.527273 25.6 83.781818 30.254545 6.981818 2.327273 13.963636 4.654545 18.618182 13.963637 2.327273 4.654545 4.654545 11.636364 2.327273 20.945454 0 4.654545-6.981818 13.963636-11.636364 16.290909-4.654545 4.654545-11.636364 4.654545-20.945455 4.654546-37.236364-6.981818-69.818182-18.618182-102.4-34.909091-30.254545-16.290909-60.509091-34.909091-88.436363-60.509091-25.6-20.945455-51.2-48.872727-72.145455-79.127273-18.618182-30.254545-37.236364-76.8-51.2-102.4-34.909091-16.290909-137.309091-55.854545-137.309091-55.854545s-27.927273-11.636364-37.236363-23.272728c-11.636364-13.963636-13.963636-37.236364-13.963637-46.545454 0-32.581818 2.327273-65.163636 6.981818-97.745455 9.309091-32.581818 16.290909-62.836364 30.254546-93.090909 13.963636-30.254545 30.254545-58.181818 51.2-86.109091 18.618182-23.272727 74.472727-79.127273 74.472727-79.127272s-2.327273-88.436364 6.981818-139.636364c2.327273-16.290909 9.309091-30.254545 13.963637-34.909091 25.6-25.6 97.745455-41.890909 130.327272-44.218182 83.781818-2.327273 141.963636 6.981818 190.836364 23.272728 27.927273 9.309091 74.472727 37.236364 86.109091 44.218181h4.654545l134.981819-51.2c6.981818-2.327273 25.6 0 32.581818 4.654546 6.981818 4.654545 20.945455 25.6 27.927273 32.581818 27.927273 30.254545 69.818182 132.654545 79.127272 179.2 6.981818 32.581818 9.309091 62.836364 9.309091 95.418182-2.327273 32.581818-4.654545 65.163636-13.963636 95.418182-2.327273 6.981818 0 11.636364 0 13.963636zM651.636364 360.727273m-58.181819 0a58.181818 58.181818 0 1 1 116.363637 0 58.181818 58.181818 0 1 1-116.363637 0ZM318.836364 253.672727c11.636364-11.636364 30.254545-11.636364 41.890909 0l81.454545 81.454546c9.309091 9.309091 9.309091 25.6-2.327273 34.909091L349.090909 437.527273c-13.963636 9.309091-30.254545 6.981818-39.563636-6.981818-9.309091-13.963636-6.981818-30.254545 6.981818-39.563637l55.854545-41.890909-53.527272-53.527273c-11.636364-11.636364-11.636364-30.254545 0-41.890909z"  horiz-adv-x="1024" />
      
      <glyph glyph-name="sixin" unicode="&#59066;" d="M809.890909 11.636364H214.109091c-93.090909 0-167.563636 74.472727-167.563636 165.236363V584.145455C46.545455 679.563636 121.018182 756.363636 214.109091 756.363636h595.781818c93.090909 0 167.563636-76.8 167.563636-172.218181v-407.272728c0-90.763636-74.472727-165.236364-167.563636-165.236363m-27.927273 528.290909c-6.981818 13.963636-20.945455 20.945455-34.909091 20.945454-6.981818 0-13.963636-2.327273-20.945454-4.654545l-221.090909-134.981818-200.145455 134.981818c-6.981818 4.654545-16.290909 4.654545-23.272727 4.654545-16.290909 0-32.581818-6.981818-39.563636-20.945454-13.963636-18.618182-4.654545-44.218182 16.290909-55.854546l218.763636-141.963636c6.981818-4.654545 13.963636-4.654545 20.945455-4.654546h13.963636c6.981818 0 13.963636 2.327273 20.945455 4.654546l232.727272 141.963636c20.945455 11.636364 27.927273 34.909091 16.290909 55.854546"  horiz-adv-x="1024" />
      
      <glyph glyph-name="shezhi1" unicode="&#59073;" d="M532.945455 456.145455c-18.618182 4.654545-39.563636 4.654545-58.181819-6.981819s-30.254545-27.927273-34.909091-46.545454-4.654545-39.563636 6.981819-55.854546c11.636364-18.618182 27.927273-30.254545 46.545454-34.909091s39.563636-4.654545 58.181818 6.981819 30.254545 27.927273 34.909091 46.545454c6.981818 18.618182 4.654545 39.563636-6.981818 55.854546-11.636364 18.618182-27.927273 30.254545-46.545454 34.909091zM937.890909 477.090909c-23.272727 23.272727-53.527273 39.563636-90.763636 39.563636 0 6.981818-2.327273 9.309091-4.654546 13.963637-4.654545 11.636364-9.309091 20.945455-16.290909 32.581818-6.981818 9.309091-13.963636 20.945455-20.945454 30.254545-2.327273 2.327273-4.654545 6.981818-9.309091 11.636364 18.618182 30.254545 20.945455 65.163636 11.636363 97.745455-9.309091 32.581818-30.254545 62.836364-62.836363 81.454545s-69.818182 20.945455-102.4 16.290909c-30.254545-11.636364-60.509091-30.254545-79.127273-60.509091-18.618182 2.327273-34.909091 2.327273-51.2 0-16.290909 2.327273-34.909091 0-51.2-2.327272-18.618182 30.254545-48.872727 48.872727-79.127273 58.181818-32.581818 9.309091-69.818182 6.981818-102.4-11.636364S225.745455 735.418182 216.436364 702.836364c-6.981818-30.254545-4.654545-65.163636 11.636363-100.072728-9.309091-13.963636-20.945455-27.927273-27.927272-41.890909-9.309091-13.963636-18.618182-27.927273-23.272728-44.218182-34.909091 0-67.490909-16.290909-90.763636-37.236363C62.836364 453.818182 46.545455 421.236364 46.545455 384c0-34.909091 16.290909-69.818182 41.890909-93.090909 23.272727-23.272727 53.527273-39.563636 90.763636-39.563636 0-6.981818 2.327273-11.636364 4.654545-13.963637 4.654545-9.309091 9.309091-20.945455 16.29091-32.581818 4.654545-11.636364 13.963636-20.945455 20.945454-30.254545 2.327273-4.654545 4.654545-6.981818 9.309091-11.636364-18.618182-30.254545-20.945455-65.163636-11.636364-97.745455 9.309091-32.581818 32.581818-62.836364 62.836364-81.454545 32.581818-18.618182 69.818182-23.272727 102.4-13.963636 32.581818 9.309091 60.509091 30.254545 79.127273 60.50909 16.290909-2.327273 32.581818-2.327273 51.2-2.327272 16.290909-2.327273 34.909091 0 51.2 2.327272 16.290909-30.254545 46.545455-51.2 79.127272-60.50909 32.581818-6.981818 69.818182-4.654545 102.4 13.963636 32.581818 18.618182 53.527273 48.872727 62.836364 81.454545 9.309091 32.581818 6.981818 67.490909-11.636364 97.745455 9.309091 13.963636 20.945455 27.927273 27.927273 41.890909 9.309091 13.963636 16.290909 27.927273 23.272727 44.218182 34.909091 0 67.490909 13.963636 90.763637 37.236363 23.272727 25.6 37.236364 58.181818 37.236363 95.418182 0 37.236364-13.963636 69.818182-39.563636 95.418182z m-295.563636-128c-9.309091-32.581818-30.254545-62.836364-62.836364-81.454545-32.581818-18.618182-69.818182-20.945455-102.4-11.636364-34.909091 9.309091-65.163636 30.254545-83.781818 62.836364-18.618182 32.581818-20.945455 69.818182-11.636364 102.4 9.309091 32.581818 32.581818 60.509091 62.836364 79.127272 32.581818 18.618182 67.490909 23.272727 102.4 13.963637 32.581818-9.309091 62.836364-30.254545 81.454545-62.836364 18.618182-32.581818 23.272727-67.490909 13.963637-102.4z"  horiz-adv-x="1024" />
      
      <glyph glyph-name="shouye" unicode="&#59083;" d="M898.327273 442.181818L523.636364 756.363636c-6.981818 6.981818-18.618182 6.981818-23.272728 0L125.672727 444.509091c-9.309091-6.981818-11.636364-20.945455-4.654545-32.581818 6.981818-9.309091 20.945455-11.636364 32.581818-4.654546h34.909091v-253.672727c0-81.454545 69.818182-148.945455 151.272727-148.945455h337.454546c86.109091 0 151.272727 65.163636 151.272727 148.945455V407.272727h34.909091c9.309091-6.981818 23.272727-6.981818 32.581818 4.654546 16.290909 9.309091 13.963636 25.6 2.327273 30.254545zM605.090909 307.2c0-41.890909-32.581818-74.472727-74.472727-74.472727h-37.236364c-41.890909 0-74.472727 32.581818-74.472727 74.472727v37.236364c0 41.890909 32.581818 74.472727 74.472727 74.472727h37.236364c41.890909 0 74.472727-32.581818 74.472727-74.472727v-37.236364z"  horiz-adv-x="1024" />
      
      <glyph glyph-name="wodeshoucang" unicode="&#59084;" d="M891.345455 423.563636c13.963636 16.290909 20.945455 37.236364 13.963636 58.181819-6.981818 20.945455-23.272727 34.909091-44.218182 39.563636L691.2 546.909091c-23.272727 4.654545-44.218182 18.618182-53.527273 41.890909l-72.145454 155.927273c-9.309091 20.945455-27.927273 34.909091-51.2 34.909091-23.272727 0-41.890909-11.636364-51.2-32.581819l-74.472728-155.927272c-9.309091-20.945455-30.254545-37.236364-53.527272-39.563637l-167.563637-23.272727c-20.945455-2.327273-39.563636-18.618182-46.545454-37.236364-9.309091-23.272727-4.654545-44.218182 11.636363-60.50909l123.345455-130.327273c16.290909-16.290909 23.272727-39.563636 18.618182-62.836364l-30.254546-181.527273c-4.654545-20.945455 4.654545-44.218182 23.272728-55.854545 9.309091-6.981818 20.945455-11.636364 32.581818-11.636364 9.309091 0 18.618182 2.327273 27.927273 6.981819l144.290909 81.454545c20.945455 11.636364 48.872727 11.636364 69.818181 0l144.29091-81.454545c9.309091-4.654545 18.618182-6.981818 27.927272-6.981819 11.636364 0 23.272727 2.327273 32.581818 9.309091 18.618182 11.636364 27.927273 34.909091 23.272728 55.854546L744.727273 232.727273c-4.654545 23.272727 4.654545 46.545455 20.945454 62.836363l125.672728 128z m-353.745455 69.818182l-39.563636-88.436363c-9.309091-18.618182-25.6-30.254545-46.545455-30.254546-6.981818 0-13.963636 2.327273-20.945454 4.654546-25.6 11.636364-37.236364 41.890909-25.6 67.490909l39.563636 88.436363c11.636364 25.6 41.890909 37.236364 67.490909 25.6 25.6-11.636364 37.236364-41.890909 25.6-67.490909z"  horiz-adv-x="1024" />
      
      <glyph glyph-name="zhuye-xuanzhong" unicode="&#58902;" d="M983.04 389.12L529.408 790.528c-9.728 8.704-24.576 8.704-34.304 0L41.472 389.12c-8.192-7.168-10.752-18.432-7.168-28.672 3.584-9.728 13.312-16.384 24.064-16.384h86.528v-227.84c0-85.504 69.632-154.624 154.624-154.624h288.768c2.048 0 3.584 0 5.632 0.512 6.144 0 12.8-0.512 20.48-0.512 126.464-1.024 174.08 14.848 187.904 20.992 1.536 0.512 3.584 1.536 5.12 2.56 45.056 28.672 72.192 77.824 72.192 131.072v227.84h86.528c10.752 0 20.48 6.144 24.064 16.384 3.584 10.24 1.024 21.504-7.168 28.672zM398.336 238.08c0 20.992 16.896 38.4 38.4 38.4h150.528c20.992 0 38.4-16.896 38.4-38.4V51.2c0-19.968-15.36-36.352-34.816-38.4-1.024 0-2.048 0.512-3.584 0.512H398.336V238.08z"  horiz-adv-x="1024" />
      
      <glyph glyph-name="home" unicode="&#58922;" d="M950.3 406.6l-416.5 416.4c-12 12-31.5 12-43.5 0l-416.4-416.4c-19.4-19.4-5.7-52.5 21.7-52.5h66.8v-353.7c0-35.3 28.7-64 64-64h157.6v127.8c0 35.3 28.7 64 64 64h128c35.3 0 64-28.7 64-64v-127.8h156.6c35.3 0 64 28.7 64 64v353.7h67.8c27.5 0 41.2 33.2 21.9 52.5z"  horiz-adv-x="1024" />
      
      <glyph glyph-name="fabuwenzhang" unicode="&#58992;" d="M513.430588 46.034824l123.452236 78.20047H311.567059c-35.764706 0-63.096471 26.563765-63.096471 62.238118v20.48l-2.725647-2.499765c-1.129412-0.632471-1.536-0.933647-2.740706-0.933647a6.580706 6.580706 0 0 0-5.827764 3.614118 7.258353 7.258353 0 0 0 2.891294 9.803294l6.806588 4.773647c0.993882 0.557176 1.596235 0.783059 1.596235 0.843294V330.691765l-56.018823-32.978824c-1.129412-0.647529-1.520941-0.948706-2.740706-0.948706a6.535529 6.535529 0 0 0-5.812706 3.614118 7.228235 7.228235 0 0 0 2.876235 9.788235l58.443294 34.288941c1.505882 0.873412 3.267765 1.039059 3.267765 0.752942v131.674353l-119.009882-68.969412c-1.129412-0.632471-1.520941-0.933647-2.740706-0.933647a6.580706 6.580706 0 0 0-5.827765 3.614117 7.258353 7.258353 0 0 0 2.891294 9.803294l124.280471 71.920942c0.617412 0.361412 0.406588 0.496941 0.406588 0.647529V673.792L43.700706 555.791059c-34.379294-19.651765-45.537882-63.608471-25.886118-97.987765l263.228236-459.791059a72.146824 72.146824 0 0 1 98.288941-26.699294l133.616941 75.685647 0.481882-0.963764z m-192.286117 65.596235l-15.600942-8.899765a7.258353 7.258353 0 0 0-9.803294 2.680471 7.213176 7.213176 0 0 0 2.680471 9.803294l15.600941 8.899765a7.183059 7.183059 0 1 0 7.122824-12.483765zM263.529412 200.839529c0-41.878588 20.434824-61.545412 48.037647-61.545411h428.66447c27.693176 0 50.356706 20.088471 50.356706 47.179294V465.498353l1.897412 1.219765c-3.177412 2.394353-5.526588 6.896941-3.132235 10.059294 0.798118 1.039059 1.234824 1.701647 1.234823 2.16847V725.263059c0 36.171294-23.672471 76.619294-64.722823 76.619294h-392.884706c-41.276235 0-69.451294-39.454118-69.451294-76.001882v-525.040942z m88.786823 450.454589h359.077647c3.975529 0 7.183059-3.553882 7.183059-7.529412s-3.207529-7.529412-7.183059-7.529412H352.316235c-3.975529 0-7.183059 3.553882-7.183059 7.529412s3.222588 7.529412 7.183059 7.529412z m0-135.529412h272.896c3.975529 0 7.183059-3.553882 7.183059-7.529412s-3.207529-7.529412-7.183059-7.529412H352.316235c-3.975529 0-7.183059 3.553882-7.183059 7.529412s3.222588 7.529412 7.183059 7.529412z m0-105.411765h186.714353c3.975529 0 7.183059-3.553882 7.183059-7.529412s-3.207529-7.529412-7.183059-7.529411H352.316235c-3.975529 0-7.183059 3.553882-7.183059 7.529411s3.222588 7.529412 7.183059 7.529412z m0-105.411765h186.714353c3.975529 0 7.183059-3.553882 7.183059-7.529411s-3.207529-7.529412-7.183059-7.529412H352.316235c-3.975529 0-7.183059 3.553882-7.183059 7.529412s3.222588 7.529412 7.183059 7.529411zM740.231529 124.235294h-77.703529l-136.553412-87.702588 58.217412-43.52a71.183059 71.183059 0 0 1 43.324235-14.245647 71.890824 71.890824 0 0 1 57.298824 28.551529l100.98447 131.945412c-13.161412-8.899765-29.635765-15.028706-45.568-15.028706zM1018.714353 482.590118c-2.605176 19.049412-15.585882 35.900235-30.810353 47.465411L805.647059 665.886118v-193.264942l88.741647-64.918588c3.177412-2.394353 5.360941-6.896941 2.966588-10.059294-1.415529-1.867294-2.770824-2.846118-4.939294-2.846118-1.520941 0-5.797647 0.481882-7.077647 1.460706L805.647059 454.610824v-141.312l12.032-6.731295c3.177412-2.394353 5.360941-6.896941 2.966588-10.059294-1.415529-1.882353-2.785882-2.861176-4.939294-2.861176-1.520941 0-5.797647 0.481882-7.077647 1.460706l-2.981647 0.165647v-108.8c0-4.909176 2.439529-9.562353 1.204706-13.95953l196.427294 256.90353c11.565176 15.239529 18.055529 34.123294 15.435294 53.172706z"  horiz-adv-x="1024" />
      
      <glyph glyph-name="dongtaixuanzhong" unicode="&#58978;" d="M1000.727273 507.345455c4.654545 20.945455-6.981818 37.236364-13.963637 44.218181-34.909091 48.872727-97.745455 104.727273-153.6 134.981819-30.254545 16.290909-62.836364 27.927273-95.418181 34.90909-32.581818 9.309091-67.490909 13.963636-102.4 13.963637-18.618182 4.654545-79.127273 116.363636-93.09091 130.327273-4.654545 6.981818-11.636364 6.981818-20.945454 6.981818-34.909091-9.309091-67.490909-18.618182-102.4-34.909091-30.254545-16.290909-60.509091-34.909091-88.436364-60.509091-25.6-20.945455-48.872727-48.872727-72.145454-79.127273-18.618182-30.254545-37.236364-76.8-51.2-102.4-34.909091-16.290909-137.309091-55.854545-137.309091-55.854545s-25.6-11.636364-37.236364-23.272728-13.963636-37.236364-13.963636-46.545454c0-32.581818 2.327273-65.163636 9.309091-100.072727 9.309091-32.581818 16.290909-62.836364 30.254545-93.090909s30.254545-58.181818 51.2-86.109091c18.618182-25.6 74.472727-79.127273 74.472727-79.127273s-4.654545-86.109091 6.981819-139.636364c2.327273-16.290909 9.309091-27.927273 13.963636-34.909091 25.6-25.6 95.418182-44.218182 130.327273-44.218181 83.781818-4.654545 144.290909 6.981818 190.836363 23.272727 25.6 9.309091 74.472727 37.236364 86.109091 44.218182h4.654546l134.981818-51.2c6.981818-2.327273 25.6 0 32.581818 4.654545 6.981818 4.654545 23.272727 25.6 27.927273 32.581818 27.927273 30.254545 69.818182 132.654545 76.8 176.872728 4.654545 32.581818 9.309091 62.836364 9.309091 95.418181-2.327273 32.581818-4.654545 65.163636-13.963637 95.418182v13.963637c4.654545 6.981818 107.054545 137.309091 116.363637 179.2zM358.4 253.672727c-11.636364-11.636364-30.254545-11.636364-41.890909 0s-11.636364 30.254545 0 41.890909l53.527273 53.527273-55.854546 41.890909c-13.963636 9.309091-16.290909 27.927273-6.981818 39.563637 9.309091 13.963636 27.927273 16.290909 39.563636 6.981818l90.763637-65.163637c11.636364-9.309091 13.963636-25.6 2.327272-34.909091l-81.454545-83.781818zM651.636364 302.545455c-32.581818 0-58.181818 25.6-58.181819 58.181818s25.6 58.181818 58.181819 58.181818 58.181818-25.6 58.181818-58.181818-25.6-58.181818-58.181818-58.181818z"  horiz-adv-x="1024" />
      
      <glyph glyph-name="tubiaozhizuomoban-" unicode="&#58904;" d="M466.8416 707.1744zM585.4208 714.4448c1.1264-1.4336 2.4576-2.7648 3.4816-4.3008-1.1264 1.536-2.3552 2.8672-3.4816 4.3008zM566.272 731.136a71.68 71.68 0 0 0 15.872-12.8 71.68 71.68 0 0 1-15.872 12.8zM443.6992 661.1968l-38.5024-78.5408a73.3184 73.3184 0 0 0-3.7888-6.7584 70.7584 70.7584 0 0 1 3.7888 6.7584zM752.7424 719.36a74.1376 74.1376 0 0 0 19.0464-5.0176 74.1376 74.1376 0 0 1-19.0464 5.0176zM837.7344 525.0048l-129.4336 18.432a73.5232 73.5232 0 0 0-55.5008 40.0384l-55.5008 111.5136a125.44 125.44 0 0 0-206.848-133.12 73.4208 73.4208 0 0 0-40.448-20.48l-129.3312-18.432a73.5232 73.5232 0 0 1-40.3456-125.44l93.9008-90.9312a73.5232 73.5232 0 0 0 21.2992-65.024l-21.6064-129.024A73.5232 73.5232 0 0 1 380.8256 35.84l115.6096 61.44a73.5232 73.5232 0 0 0 68.4032 0l115.9168-60.5184a73.5232 73.5232 0 0 1 106.3936 77.824l-22.528 128.8192a73.5232 73.5232 0 0 0 20.48 65.1264l93.3888 91.5456a73.5232 73.5232 0 0 1-40.7552 124.928zM529.408 223.1296A78.9504 78.9504 0 0 0 450.56 302.08a18.3296 18.3296 0 1 0 36.7616 0 42.0864 42.0864 0 0 1 84.1728 0 18.3296 18.3296 0 1 0 36.7616 0 78.9504 78.9504 0 0 0-78.848-78.9504zM397.1072 569.856l2.6624 3.4816zM589.824 320.4096A18.3296 18.3296 0 0 1 571.4944 302.08a42.0864 42.0864 0 0 0-84.1728 0A18.3296 18.3296 0 1 1 450.56 302.08a78.848 78.848 0 0 1 157.696 0 18.3296 18.3296 0 0 1-18.432 18.3296zM597.2992 694.9888l-2.7648 5.5296a76.9024 76.9024 0 0 1-5.632 9.6256 76.8 76.8 0 0 0 5.632-9.6256zM466.8416 707.1744a76.1856 76.1856 0 0 1-4.096-7.0656l-19.0464-38.912 19.0464 38.912a76.288 76.288 0 0 0 4.096 7.0656zM399.36 573.3376l1.6384 2.56zM518.656 740.5568A72.192 72.192 0 0 1 470.016 711.68a72.192 72.192 0 0 0 48.64 28.8768zM582.144 718.336c1.1264-1.2288 2.1504-2.6624 3.1744-3.9936-1.024 1.4336-1.6384 2.8672-3.1744 3.9936zM390.4512 562.3808a73.1136 73.1136 0 0 1 6.656 7.4752 75.6736 75.6736 0 0 0-6.656-7.4752zM605.696 650.24a125.0304 125.0304 0 0 1-8.3968 44.9536l-2.7648 5.5296a76.8 76.8 0 0 1-5.632 9.6256c-1.1264 1.536-2.3552 2.8672-3.4816 4.3008s-2.048 2.7648-3.1744 3.9936a71.68 71.68 0 0 1-15.9744 12.4928 72.2944 72.2944 0 0 1-8.9088 4.4032 74.1376 74.1376 0 0 1-19.0464 5.0176 75.4688 75.4688 0 0 1-19.6608 0A72.192 72.192 0 0 1 470.016 711.68c-1.1264-1.536-2.1504-3.072-3.1744-4.7104a76.288 76.288 0 0 1-4.096-7.0656l-19.0464-38.912-38.5024-78.336a70.7584 70.7584 0 0 0-3.7888-6.7584l-1.6384-2.56-2.6624-3.4816a73.1136 73.1136 0 0 0-6.656-7.4752 125.44 125.44 0 0 1 215.04 87.6544zM605.696 650.24a125.0304 125.0304 0 0 1-8.3968 44.9536l-2.7648 5.5296a76.8 76.8 0 0 1-5.632 9.6256c-1.1264 1.536-2.3552 2.8672-3.4816 4.3008s-2.048 2.7648-3.1744 3.9936a71.68 71.68 0 0 1-15.9744 12.4928 72.2944 72.2944 0 0 1-8.9088 4.4032 74.1376 74.1376 0 0 1-19.0464 5.0176 75.4688 75.4688 0 0 1-19.6608 0A72.192 72.192 0 0 1 470.016 711.68c-1.1264-1.536-2.1504-3.072-3.1744-4.7104a76.288 76.288 0 0 1-4.096-7.0656l-19.0464-38.912-38.5024-78.336a70.7584 70.7584 0 0 0-3.7888-6.7584l-1.6384-2.56-2.6624-3.4816a73.1136 73.1136 0 0 0-6.656-7.4752 125.44 125.44 0 0 1 215.04 87.6544z"  horiz-adv-x="1024" />
      
      <glyph glyph-name="zhuye" unicode="&#58905;" d="M997.3 439.6l-419 428.5c-36.4 37.3-96.1 37.3-132.5 0l-419-428.5c-57-58.3-16.6-158 64-158h62.9v-307.2c0-56.6 45.8-102.4 102.4-102.4h153.6V128c0 28.3 22.9 51.2 51.2 51.2h102.4c28.3 0 51.2-22.9 51.2-51.2v-256H768c56.6 0 102.4 45.8 102.4 102.4V281.6h62.9c80.6 0 121 99.7 64 158z"  horiz-adv-x="1024" />
      
      <glyph glyph-name="icon2" unicode="&#58958;" d="M782.919 896H241.081A176.396 176.396 0 0 1 64.8816 719.7860000000001v-671.572a176.411 176.411 0 0 1 176.199-176.214h541.839a176.411 176.411 0 0 1 176.199 176.214V719.7860000000001A176.396 176.396 0 0 1 782.919 896ZM286.486 685.8489999999999H748.164v-116.658H286.486ZM748.164 68.54600000000005H286.486a22.7256 22.7256 0 1 0 0 45.4512H748.164a22.7256 22.7256 0 0 0 0-45.4512Zm0 116.658H286.486a22.7256 22.7256 0 1 0 0 45.4512H748.164a22.7256 22.7256 0 0 0 0-45.4512Z"  horiz-adv-x="1024" />
      
      <glyph glyph-name="-gerenxinxi" unicode="&#59179;" d="M586.24 357.376a189.44 189.44 0 0 1 102.4 168.96 185.344 185.344 0 0 1-183.296 188.416 185.344 185.344 0 0 1-181.76-188.416 189.44 189.44 0 0 1 102.4-169.984 232.448 232.448 0 0 1-204.8-233.984v-13.312c0-34.816 23.04-56.832 70.144-66.56a843.264 843.264 0 0 1 157.184-8.704h129.024c121.856 0 227.328 0 227.328 75.264v13.312a231.936 231.936 0 0 1-218.624 235.008z"  horiz-adv-x="1024" />
      
      <glyph glyph-name="shezhixitongshezhigongnengshezhishuxing" unicode="&#59285;" d="M951.7 467.2c-0.2 1.8-0.4 3.3-0.7 4.2v0.8l-0.4 2.2c-7.1 34.6-30 56.9-58.5 56.9h-4.7c-48.6 0-88 39.6-88 88 0 11.2 5.2 27.1 7.4 32.7 13.8 32.2-0.9 68.9-35 87.6L664.5 800.3l-2 0.7c-8 2.6-17.3 5.7-27.7 5.7-19.4 0-41.2-9-54.7-22.5-16.9-16.7-51.2-41.6-71.6-41.6-20.3 0-54.7 24.8-71.6 41.6-14.4 14.2-34.3 22.5-54.7 22.5-10.7 0-19.7-3-27.7-5.7l-1.8-0.7-112.5-60.9-0.7-0.4c-27.3-17.1-38.4-56.3-24.5-87.4l0.2-0.4 0.2-0.4c2.2-4.9 9-21.5 9-36 0-48.6-39.6-88-88-88h-4.7c-29.8 0-52.1-22-58.5-57.3l-0.4-2v-0.7c0-1-0.4-2.4-0.7-4.2-2.5-15.1-8.5-50.7-8.5-79.8 0-29.1 5.9-64.7 8.5-79.8 0.2-1.8 0.4-3.3 0.7-4.2v-0.8l0.4-2.2c7.1-34.6 30-56.9 58.5-56.9h2.4c48.6 0 88-39.6 88-88 0-11.2-5.2-27.1-7.4-32.7-13.3-30.3-0.7-69.2 28.7-88.8l0.8-0.4 106-59 2-0.7c8-2.6 17.1-5.7 27.5-5.7 22.2 0 42.2 8.5 54.7 22.5 1.2 0.9 2.4 2.1 3.8 3.3 12.8 11.2 47.2 40.8 69.9 40.8 16.9 0 45.2-17.7 73.7-46.2 14.4-14.2 34.3-22.5 54.7-22.5 13.8 0 24 3.8 35.6 9.5l0.4 0.2 108.7 60.1 0.4 0.4c27.3 17.1 38.4 56.3 24.5 87.4l-0.2 0.4-0.2 0.4c-0.2 0.1-8.7 17.8-7.1 33.7l0.2 1v1c0 48.6 39.6 88 88 88h5c29.8 0 52.1 22 58.5 57.3l0.4 2v0.7c0.2 0.8 0.4 2 0.7 3.6 2.6 14.7 8.6 49 8.6 80.4 0.2 29-5.7 64.5-8.3 79.6z m-440-222.4c-76.9 0-139.2 62.3-139.2 139.2s62.3 139.2 139.2 139.2S650.9 460.9 650.9 384s-62.3-139.2-139.2-139.2z"  horiz-adv-x="1024" />
      
      <glyph glyph-name="_zhuye" unicode="&#58906;" d="M441.202241 840.472089L10.044346 409.314195C-11.186914 389.716108 3.51165 353.786284 32.90878 353.786284h52.261563v-409.926635c0-39.196172 32.663477-71.859649 71.859649-71.859649h223.744816c17.964912 0 32.663477 14.698565 32.663477 32.663477v97.99043c0 76.759171 62.060606 140.452951 140.452951 140.452951 76.759171 0 140.452951-62.060606 140.45295-140.452951v-97.99043c0-17.964912 14.698565-32.663477 32.663477-32.663477h228.644338c39.196172 0 71.859649 32.663477 71.859649 71.859649V353.786284h52.261563c29.397129 0 44.095694 35.929825 22.864434 55.527911L671.479752 840.472089C607.785973 904.165869 504.89602 904.165869 441.202241 840.472089z m-37.562999-552.012759c0-8.165869-6.532695-16.331738-16.331738-16.331738H202.758859c-8.165869 0-16.331738 6.532695-16.331738 16.331738v4.899522c0 8.165869 6.532695 16.331738 16.331738 16.331738h186.181819c8.165869 0 16.331738-6.532695 16.331738-16.331738v-4.899522z"  horiz-adv-x="1112" />
      
      <glyph glyph-name="dongtai" unicode="&#58909;" d="M880.4 459.1c23.9 23.9 10 64.8-23.5 69.2l-204.7 26.9c-13.3 1.7-24.9 9.9-31 21.9l-93.9 183.8c-15.4 30.1-58.6 29.5-73.1-1l-88.8-186.3c-5.8-12.1-17.1-20.6-30.4-22.7l-203.8-32.5c-33.4-5.3-46.2-46.6-21.6-69.8l149.8-142c9.7-9.2 14.3-22.7 12.2-35.9l-32.1-203.9c-5.3-33.4 30-58.3 59.7-42.2L480.5 123c11.8 6.4 26 6.6 37.9 0.5l184-93.5c30.1-15.3 64.7 10.6 58.6 43.8l-37.7 202.9c-2.4 13.2 1.8 26.7 11.2 36.2l145.9 146.2zM656.7 615.3c38.5-45.8 145.6-50 145.6-50 11.4 0.7 17 14.1 9.6 22.7l-45.4 52.6c-3 3.4-4 8.1-2.9 12.4l17.5 67.2c2.9 11-8.1 20.5-18.6 16.1l-64-27c-4.2-1.8-8.9-1.3-12.7 1.1L627.3 748c-9.6 6.1-22-1.4-21.1-12.7 0-0.1 7.9-69.3 50.5-120z"  horiz-adv-x="1024" />
      
      <glyph glyph-name="zhuye1" unicode="&#58960;" d="M1011.017143 335.908571L556.8 871.314286a57.6 57.6 0 0 1-89.6 0L12.982857 335.908571a57.6 57.6 0 0 1 44.8-93.805714c31.817143 0 77.348571-25.782857 77.348572-57.6v-251.611428a57.6 57.6 0 0 1 57.6-57.6h102.948571a57.6 57.6 0 0 1 57.6 57.6v171.154285a57.6 57.6 0 0 0 57.6 57.6h202.24a57.6 57.6 0 0 0 57.6-57.6v-171.154285a57.6 57.6 0 0 1 57.6-57.6h102.948571a57.6 57.6 0 0 1 57.6 57.6V184.502857c0 31.817143 45.531429 57.6 77.348572 57.6a57.6 57.6 0 0 1 44.8 93.805714z"  horiz-adv-x="1024" />
      
      <glyph glyph-name="tubiaozhizuomoban-1" unicode="&#58911;" d="M765.78 723.86H255.04c-45.71 0-82.9-37.19-82.9-82.9v-510.75c0-47.46 38.61-86.07 86.07-86.07h507.57c47.46 0 86.07 38.61 86.07 86.07V637.79c0.01 47.46-38.6 86.07-86.07 86.07zM574.71 298.97h-212.7c-15.26 0-27.63 12.37-27.63 27.63s12.37 27.63 27.63 27.63H574.7c15.26 0 27.63-12.37 27.63-27.63 0.01-15.26-12.36-27.63-27.62-27.63z m88.59 163.55H362.01c-15.26 0-27.63 12.37-27.63 27.63s12.37 27.63 27.63 27.63H663.3c15.26 0 27.63-12.37 27.63-27.63s-12.37-27.63-27.63-27.63z"  horiz-adv-x="1024" />
      
      <glyph glyph-name="zhuye2" unicode="&#58913;" d="M844.44 517.42v-396.35c0-67.36-55.22-122.59-122.59-122.59H300.53c-67.36 0-122.59 55.22-122.59 122.59V517.42l333.25 219.44 333.25-219.44zM511.19 166.52c-71.63 0-129.91 58.28-129.91 129.91s58.28 129.91 129.91 129.91S641.1 368.06 641.1 296.43s-58.28-129.91-129.91-129.91z m0 188.4c-32.25 0-58.5-26.24-58.5-58.5s26.24-58.5 58.5-58.5c32.26 0 58.5 26.24 58.5 58.5s-26.24 58.5-58.5 58.5zM927.07 535.64L530.52 790.88c-0.75 0.48-1.55 0.76-2.32 1.18-1.16 0.63-2.3 1.29-3.52 1.79-1.08 0.44-2.17 0.72-3.27 1.04-1.11 0.33-2.21 0.7-3.35 0.93-1.11 0.22-2.21 0.29-3.33 0.4-1.2 0.12-2.38 0.27-3.59 0.27-1.01 0-1.99-0.14-3-0.22-1.31-0.11-2.61-0.2-3.91-0.46-0.95-0.19-1.86-0.51-2.79-0.77-1.28-0.36-2.55-0.7-3.8-1.21-1.07-0.44-2.06-1.03-3.08-1.57-0.89-0.47-1.81-0.81-2.67-1.36L95.31 535.64c-16.6-10.69-21.39-32.78-10.72-49.35 6.83-10.6 18.32-16.39 30.06-16.39 6.63 0 13.32 1.84 19.29 5.67l377.25 242.8 377.23-242.8a35.558 35.558 0 0 1 19.29-5.67c11.72 0 23.22 5.79 30.06 16.39 10.68 16.58 5.9 38.66-10.7 49.35z"  horiz-adv-x="1024" />
      
      <glyph glyph-name="zhuye3" unicode="&#58916;" d="M919.6 532.3L806.1 728.9c-13.5 23.4-33.4 41-56.2 51.9-20.5 11.4-43.9 17.9-68.9 17.9H332.9c-6.4 0-12.6-0.6-18.7-1.4-47-1.7-91.6-28.2-113.1-73.3l-97.6-205c-30.7-64.5-3.1-142.4 61.4-173.1 7.2-3.4 14.5-6 21.9-8v-302.8c0-36.9 30-66.9 66.9-66.9h366.8c136.1 0 246.8 110.7 246.8 246.8V352.8c1.6 0.8 3.2 1.3 4.8 2.1 61.8 35.7 83.2 115.6 47.5 177.4z m-99.5-317.2c0-110.1-89.6-199.6-199.6-199.6H253.7c-10.8 0-19.7 8.8-19.7 19.7V334.3c36 3.8 69.6 22.6 91.6 52.9h64.7c20.5-45 65.7-76.6 118.1-76.6s97.6 31.6 118.1 76.6H705c27.8-35.3 71.7-52.9 115-48.7v-123.4z"  horiz-adv-x="1024" />
      
      <glyph glyph-name="01_wenzhangguanli" unicode="&#58934;" d="M904.533333 679.822222c-5.688889 56.888889-39.822222 85.333333-96.711111 85.333334H307.2c-62.577778 0-113.777778-45.511111-113.777778-113.777778v-489.244445H113.777778v-56.888889c0-68.266667 45.511111-108.088889 108.088889-108.088888h483.555555c11.377778 0 28.444444 5.688889 39.822222 5.688888 39.822222 17.066667 62.577778 51.2 62.577778 102.4V509.155556v17.066666h91.022222c5.688889 56.888889 11.377778 108.088889 5.688889 153.6z m-267.377777-625.777778H227.555556c-39.822222 0-62.577778 22.755556-62.577778 56.888889v5.688889H625.777778c5.688889-22.755556 11.377778-39.822222 17.066666-62.577778h-5.688888zM307.2 389.688889c0 17.066667 11.377778 22.755556 28.444444 22.755555h159.288889c17.066667 0 28.444444-11.377778 28.444445-22.755555 0-17.066667-11.377778-28.444444-28.444445-28.444445H329.955556c-11.377778 5.688889-22.755556 11.377778-22.755556 28.444445z m352.711111 113.777778H329.955556c-17.066667 0-28.444444 11.377778-28.444445 22.755555 5.688889 17.066667 11.377778 28.444444 28.444445 28.444445h329.955555c22.755556 0 39.822222-11.377778 39.822222-28.444445 0-11.377778-11.377778-22.755556-39.822222-22.755555zM853.333333 583.111111h-39.822222V685.511111c0 11.377778 11.377778 17.066667 17.066667 17.066667 11.377778 0 17.066667-11.377778 17.066666-17.066667v-102.4z"  horiz-adv-x="1024" />
      
      <glyph glyph-name="wenzhangshezhi" unicode="&#58917;" d="M914.251753-91.355429H109.680324a36.644571 36.644571 0 0 0-36.571428 36.571429v877.714286A36.571429 36.571429 0 0 0 109.680324 859.428571h512.073143A329.435429 329.435429 0 0 0 950.823181 530.432v-585.216c0-20.114286-16.457143-36.571429-36.571428-36.571429z m-694.784 219.648a73.142857 73.142857 0 0 1 0-146.285714h584.996571a73.142857 73.142857 0 1 1 0 146.285714H219.467753z m0 219.355429a73.142857 73.142857 0 0 1 0-146.285714h584.996571a73.142857 73.142857 0 1 1 0 146.285714H219.467753z m0 219.355429a73.142857 73.142857 0 1 1 0-146.285715h584.996571a73.142857 73.142857 0 0 1 0 146.285715H219.467753z m0 219.355428a73.142857 73.142857 0 1 1 0-146.285714H585.108896a73.142857 73.142857 0 0 1 72.996571 73.289143 72.265143 72.265143 0 0 1-72.996571 72.996571H219.467753zM914.251753-54.784v105.764571c-2.194286-58.514286-50.541714-105.545143-109.787429-105.545142H219.467753A109.787429 109.787429 0 0 0 109.680324 55.003429c0 59.611429 47.689143 108.251429 106.934857 109.860571a109.714286 109.714286 0 0 0 0 219.282286 109.787429 109.787429 0 0 0 0.073143 219.428571A109.860571 109.860571 0 0 0 109.680324 713.362286c0 59.757714 48.274286 108.544 107.958857 109.568H109.680324v-877.714286h804.571429m0 113.810286v211.382857a109.714286 109.714286 0 0 0-106.934857-105.545143c57.929143-1.462857 104.886857-48.054857 106.934857-105.837714m0 219.355428V489.984a110.006857 110.006857 0 0 0-106.934857-105.837714c57.929143-1.462857 104.886857-47.981714 106.934857-105.764572m0 219.648v32.402286A292.790857 292.790857 0 0 1 621.753467 822.857143h-32.768a109.714286 109.714286 0 0 0 0.146286-219.282286h215.332571c59.245714 0 107.666286-47.030857 109.787429-105.545143M914.251753-128H109.680324a73.142857 73.142857 0 0 0-73.142857 73.142857v877.714286A73.142857 73.142857 0 0 0 109.680324 896h512.073143A366.006857 366.006857 0 0 0 987.39461 530.432v-585.216a73.142857 73.142857 0 0 0-73.142857-73.142857z m-694.784 219.648a36.571429 36.571429 0 0 1 0-73.142857h584.996571a36.644571 36.644571 0 1 1 0 73.142857H219.467753z m0 219.355429a36.571429 36.571429 0 0 1 0-73.142858h584.996571a36.644571 36.644571 0 1 1 0 73.142858H219.467753z m0 219.355428a36.571429 36.571429 0 1 1 0-73.142857h584.996571a36.644571 36.644571 0 0 1 0 73.142857H219.467753z m0 219.355429a36.571429 36.571429 0 1 1 0-73.142857H585.108896a36.644571 36.644571 0 0 1 0 73.142857H219.467753z"  horiz-adv-x="1024" />
      
      <glyph glyph-name="zuozhuan-" unicode="&#59046;" d="M138.72 560.45l4.84 2.8a19 19 0 0 0 26-6.94l23.16-40c57.86 151.64 214.17 254.64 390.84 230.62 163-22.17 291.67-154.12 310.25-317.61C918.81 209.35 747.44 23 532.54 23a362.58 362.58 0 0 0-265.35 115c-12 12.77-3.19 33.64 14.31 33.64a32 32 0 0 0 22.84-9.4c71.09-72.28 176.25-110.94 289.46-90C726 96.81 829.09 204.42 848.91 337.42 878.52 536 725.47 706.73 532.54 706.73c-136 0-252.08-84.86-298.43-204.48l39.18 22.67a21.82 21.82 0 0 0 21.86-37.78L212 439.05a21.82 21.82 0 0 0-29.82 8 22 22 0 0 0-1.06 2.1l-49.38 85.34a19 19 0 0 0 6.98 25.96z"  horiz-adv-x="1024" />
      
      <glyph glyph-name="youzhuan-" unicode="&#59047;" d="M886.74 560.45l-4.84 2.8a19 19 0 0 1-26-6.94l-23.16-40C774.88 667.92 618.56 770.92 441.9 746.89c-163-22.17-291.67-154.12-310.25-317.61C106.65 209.35 278 23 492.92 23a362.58 362.58 0 0 1 265.34 115c12 12.77 3.19 33.64-14.31 33.64a32 32 0 0 1-22.84-9.4C650 90 544.86 51.31 431.65 72.3c-132.22 24.51-235.28 132.12-255.11 265.12C146.93 536 300 706.73 492.92 706.73c136 0 252.08-84.86 298.43-204.48l-39.18 22.67a21.82 21.82 0 0 1-21.86-37.78l83.1-48.09a21.82 21.82 0 0 1 29.82 8 22 22 0 0 1 1.06 2.1l49.38 85.34a19 19 0 0 1-6.93 25.96z"  horiz-adv-x="1024" />
      
      <glyph glyph-name="wj-wjj" unicode="&#59320;" d="M870.4 678.4c14.1 0 25.6-11.5 25.6-25.6v-537.6c0-14.1-11.5-25.6-25.6-25.6H153.6c-14.1 0-25.6 11.5-25.6 25.6v448c0 14.1 11.5 25.6 25.6 25.6h384.9l18.7 18.7 70.9 70.9h242.3m0 64H620.2c-11.9 0-23.3-4.7-31.7-13.1L512 652.8H153.6c-49.5 0-89.6-40.1-89.6-89.6v-448c0-49.5 40.1-89.6 89.6-89.6h716.8c49.5 0 89.6 40.1 89.6 89.6V652.8c0 49.5-40.1 89.6-89.6 89.6zM768 154.60000000000002H256c-17.7 0-32 14.3-32 32s14.3 32 32 32h512c17.7 0 32-14.3 32-32s-14.3-32-32-32z"  horiz-adv-x="1024" />
      
      <glyph glyph-name="dongman" unicode="&#58884;" d="M876.8 601.6c0 86.4-70.4 156.8-156.8 156.8-51.2 0-100.8-25.6-129.6-68.8-36.8 8-75.2 8-112 0-48 72-145.6 89.6-217.6 41.6s-89.6-145.6-41.6-217.6c9.6-14.4 22.4-27.2 36.8-36.8-4.8-22.4-8-44.8-8-67.2 0-158.4 128-286.4 286.4-286.4 158.4 0 286.4 128 286.4 286.4 0 22.4-3.2 44.8-8 67.2 40 28.8 64 75.2 64 124.8z m-115.2-81.6c-14.4-6.4-20.8-24-16-38.4 40-115.2-20.8-243.2-136-283.2s-243.2 20.8-283.2 136c-8 24-12.8 49.6-12.8 75.2 0 24 3.2 48 11.2 70.4 4.8 14.4-1.6 32-16 38.4-32 16-52.8 48-52.8 83.2 0 51.2 40 92.8 91.2 94.4 36.8 0 72-20.8 86.4-56 6.4-14.4 22.4-22.4 38.4-17.6 41.6 12.8 84.8 12.8 126.4 0 16-4.8 32 3.2 38.4 17.6 20.8 46.4 75.2 67.2 121.6 46.4 46.4-20.8 67.2-75.2 46.4-121.6-9.6-19.2-24-35.2-43.2-44.8zM540.8 492.8c-9.6 0-16-6.4-16-16v-128c0-9.6 6.4-16 16-16s16 6.4 16 16v128c0 9.6-8 16-16 16z"  horiz-adv-x="1024" />
      
      <glyph glyph-name="dongman1" unicode="&#58908;" d="M379.4 658l-13.3 26.9c46 22.8 95.5 34.3 147.1 34.3 46.5 0 91.5-9.4 133.8-28.1l-12.1-27.5c-38.4 16.9-79.4 25.5-121.7 25.5-47 0.1-92-10.4-133.8-31.1zM513.2 55.3c-88.7 0-172 34.5-234.7 97.2-62.7 62.7-97.2 146.1-97.2 234.7 0 61.2 16.8 121 48.6 173l25.6-15.7c-28.9-47.3-44.2-101.7-44.2-157.4 0-166.5 135.5-302 302-302s302 135.5 302 302c0 58.1-16.5 114.5-47.8 163.1l25.2 16.2c34.4-53.5 52.6-115.5 52.6-179.3 0-88.7-34.5-172-97.2-234.7s-146.2-97.1-234.9-97.1zM248.6 533.4l-12.1 5.4C196.7 556.7 171 596.4 171 640c0 61.2 49.8 111 111 111 47.3 0 89.5-30 104.9-74.7l4.3-12.5-11.8-5.9c-51.2-25.4-94.1-64.6-123.9-113.4l-6.9-11.1zM282 721.1c-44.7 0-81-36.3-81-81 0-27.5 14-52.9 36.6-67.7 29.7 44.1 69.3 80.4 115.9 106-14 25.9-41.3 42.7-71.5 42.7zM255.5 544.6l-25.6 15.7c32.8 53.6 79.9 96.7 136.2 124.6l13.3-26.9c-51.2-25.4-94.1-64.6-123.9-113.4zM775.4 537.9l-8 12.4c-32.2 50.1-78.1 89.3-132.5 113.3l-13.5 6 5.8 13.6c17.4 41.2 57.6 67.8 102.3 67.8 61.2 0 111-49.8 111-111 0-38.6-19.6-73.9-52.5-94.3l-12.6-7.8zM661.5 684.3c48.7-24.3 90.5-60 122.1-104.5 17 15.2 26.8 36.9 26.8 60.2 0 44.7-36.3 81-81 81-27.8 0.1-53.1-14-67.9-36.7zM767.4 550.3c-32.2 50.1-78.1 89.3-132.5 113.3l12.1 27.5c59.8-26.4 110.2-69.4 145.6-124.6l-25.2-16.2zM387.6 390.1c-41.6 0-75.5 30.6-75.5 68.2s33.9 68.2 75.5 68.2 75.5-30.6 75.5-68.2-33.9-68.2-75.5-68.2z m0 106.4c-25.1 0-45.5-17.1-45.5-38.2s20.4-38.2 45.5-38.2 45.5 17.1 45.5 38.2-20.4 38.2-45.5 38.2zM638.5 390.1c-41.6 0-75.5 30.6-75.5 68.2s33.9 68.2 75.5 68.2 75.5-30.6 75.5-68.2-33.8-68.2-75.5-68.2z m0 106.4c-25.1 0-45.5-17.1-45.5-38.2s20.4-38.2 45.5-38.2 45.5 17.1 45.5 38.2-20.4 38.2-45.5 38.2z"  horiz-adv-x="1024" />
      
      <glyph glyph-name="icon_comment" unicode="&#58886;" d="M960 384c0-247.424-200.576-448-448-448-83.36 0-161.152 23.168-228 62.848l-184.768-52.8c-15.36-4.352-29.568 9.824-25.184 25.184l52.8 184.768c-39.68 66.848-62.848 144.64-62.848 228 0 247.424 200.576 448 448 448 247.424 0 448-200.576 448-448z"  horiz-adv-x="1024" />
      
      <glyph glyph-name="shoucang" unicode="&#59590;" d="M335.008-20.629333c-35.914667-22.314667-82.88-10.773333-104.693333 25.557333a77.333333 77.333333 0 0 0-8.96 57.429333l46.485333 198.24a13.141333 13.141333 0 0 1-4.021333 12.864l-152.16 132.586667c-31.605333 27.52-35.253333 75.648-8.234667 107.733333a75.68 75.68 0 0 0 51.733333 26.752L354.848 556.8c4.352 0.362667 8.245333 3.232 10.026667 7.594667l76.938666 188.170666c16.032 39.2 60.618667 57.92 99.52 41.461334a76.309333 76.309333 0 0 0 40.832-41.461334l76.938667-188.16c1.781333-4.373333 5.674667-7.253333 10.026667-7.605333l199.712-16.277333c41.877333-3.413333 72.885333-40.458667 69.568-82.517334a76.938667 76.938667 0 0 0-26.08-51.978666l-152.16-132.586667c-3.541333-3.082667-5.141333-8.074667-4.021334-12.853333l46.485334-198.24c9.621333-41.013333-15.36-82.336-56.138667-92.224a75.285333 75.285333 0 0 0-57.525333 9.237333l-170.976 106.24a11.296 11.296 0 0 1-12.010667 0l-170.986667-106.24z"  horiz-adv-x="1024" />
      
      <glyph glyph-name="dongman2" unicode="&#58910;" d="M988.672 612.64c-40.32 52.608-106.816 77.696-172.928 66.304-57.472-10.176-102.4-46.464-126.08-97.28C585.28 624.48 458.56 625.44 333.504 583.968c-24.96 51.648-71.744 87.552-130.688 96C136.384 689.248 70.72 661.92 32.192 608.032c-39.168-56.256-41.344-128.512-6.016-188.8C52.992 373.6 96.384 344.416 145.216 335.328 144.576 333.344 143.936 331.36 143.36 329.312 141.696 323.424 140.16 317.472 138.752 311.52s-2.688-12.032-3.84-18.112S132.8 281.12 131.968 274.912C131.072 268.768 130.368 262.496 129.792 256.224S128.768 243.616 128.448 237.216C128.128 230.88 128 224.416 128 218.016c0-27.648 2.688-54.592 7.808-80.64 5.12-25.984 12.672-51.136 22.4-75.072 9.664-23.936 21.568-46.656 35.392-67.968 13.824-21.248 29.504-41.152 46.912-59.2 17.344-18.048 36.352-34.432 56.832-48.896 20.416-14.4 42.24-26.752 65.216-36.864s47.104-17.984 72.064-23.296S485.504-181.984 512-181.984s52.416 2.816 77.44 8.128c25.024 5.312 49.088 13.184 72.064 23.296s44.8 22.528 65.28 36.864c20.352 14.464 39.424 30.784 56.832 48.896 17.344 18.048 33.088 37.952 46.784 59.2 13.824 21.312 25.728 44.032 35.456 67.968s17.28 49.088 22.4 75.072C893.312 163.424 896 190.368 896 218.016c0 6.464-0.128 12.864-0.448 19.2-0.32 6.4-0.832 12.736-1.344 19.008s-1.344 12.544-2.176 18.688-1.856 12.352-3.008 18.432-2.368 12.096-3.84 18.112c-1.344 6.016-2.944 11.968-4.544 17.856-0.576 2.112-1.28 4.096-1.856 6.144 50.88 9.408 95.808 40.256 122.112 88.576C1034.24 485.536 1029.696 557.664 988.672 612.64zM944.64 454.688c-16.768-30.784-38.784-55.872-86.72-58.368-17.344-0.896-36.864-13.312-39.872-35.328-1.344-10.048 1.856-27.712 3.072-31.232 1.92-5.824 3.84-11.712 5.504-17.664s3.2-12.032 4.608-18.112 2.624-12.288 3.712-18.496 1.984-12.48 2.688-18.816 1.28-12.736 1.6-19.136 0.576-12.928 0.576-19.52c0-23.68-2.304-46.784-6.656-69.184s-10.816-43.968-19.136-64.512-18.432-40.128-30.272-58.368c-11.84-18.304-25.216-35.328-40.064-50.88-14.784-15.552-31.04-29.632-48.512-41.984s-36.096-23.04-55.68-31.744-40.192-15.488-61.44-20.032C556.672-123.36 534.592-125.728 512-125.728s-44.672 2.368-65.984 6.976c-21.312 4.544-41.92 11.392-61.504 20.032s-38.208 19.392-55.68 31.744S295.168-40.48 280.32-24.928s-28.224 32.576-40 50.88c-11.84 18.24-21.952 37.824-30.272 58.368-8.256 20.544-14.72 42.112-19.136 64.512-4.352 22.4-6.656 45.504-6.656 69.184 0 6.592 0.192 13.056 0.576 19.52s0.96 12.8 1.664 19.136S188.096 269.28 189.184 275.488s2.304 12.416 3.648 18.496 2.944 12.16 4.608 18.112 5.12 24.064 9.408 36.224C215.36 372.512 201.024 396 174.016 395.36 123.264 394.208 99.136 421.344 81.408 451.616c-17.664 30.208-26.24 77.44 3.008 119.552 24.448 34.048 66.688 51.84 109.376 45.44 41.728-5.952 74.56-32.896 88.512-71.68 9.664-26.88 47.04-16.384 49.728-14.272 126.592 46.336 255.744 45.184 356.672-3.136C704 519.968 732.992 517.984 740.736 541.344c12.992 39.168 44.544 67.264 86.144 74.56 42.496 7.744 85.248-8.64 110.784-41.856C968.32 532.96 961.344 485.408 944.64 454.688z"  horiz-adv-x="1024" />
      
      <glyph glyph-name="dongman11" unicode="&#58912;" d="M941 578.7c0 106.2-86.4 192.6-192.6 192.6-67.1 0-127.9-34.1-162.9-90.2-50.6 11.4-103.3 11.4-153.8 0-35.1 56.1-95.9 90.2-162.9 90.2-106.2 0-192.6-86.4-192.6-192.6 0-66.9 35.6-129.3 92.1-164-5.2-24.1-7.8-48.6-7.8-73.1 0-192 156.2-348.1 348.2-348.1s348.2 156.2 348.2 348.1c0 24.5-2.6 49-7.8 73.1 56.3 34.7 91.9 97.1 91.9 164zM810.9 448.5c-10.4-5-15.8-16.8-12.8-27.9 7-25.8 10.6-52.4 10.6-79 0-165.5-134.6-300.1-300.1-300.1-165.5 0-300.1 134.6-300.1 300.1 0 26.6 3.6 53.2 10.6 79 3 11.2-2.3 22.9-12.8 27.9-50.6 24.3-82.1 74.2-82.1 130.1 0 79.7 64.8 144.5 144.5 144.5 55.3 0 104.9-30.9 129.5-80.6 5.1-10.4 17-15.7 28.1-12.4 53.7 15.3 110.9 15.3 164.6 0 11.1-3.2 23 2.1 28.1 12.4 24.6 49.7 74.2 80.6 129.5 80.6 79.7 0 144.5-64.8 144.5-144.5 0-55.8-31.5-105.7-82.1-130.1z"  horiz-adv-x="1024" />
      
      <glyph glyph-name="yonghu" unicode="&#59080;" d="M445.781333 517.688889c-19.456 0-35.271111-15.815111-35.271111-35.271111V445.44c0-19.456 15.815111-35.271111 35.271111-35.271111s35.271111 15.815111 35.271111 35.271111v36.977778c0 19.456-15.815111 35.271111-35.271111 35.271111zM615.879111 410.168889c19.456 0 35.271111 15.815111 35.271111 35.271111v36.977778c0 19.456-15.815111 35.271111-35.271111 35.271111s-35.271111-15.815111-35.271111-35.271111V445.44c0-19.456 15.815111-35.271111 35.271111-35.271111zM791.665778 54.727111c-0.113778 1.024-0.227556 2.048-0.455111 2.958222-6.144 33.678222-22.983111 65.536-47.445334 89.543111-9.329778 9.216-19.456 16.952889-30.378666 23.210667 16.611556 11.377778 32.199111 24.348444 46.762666 38.798222 61.326222 61.326222 95.118222 142.904889 95.118223 229.717334s-33.792 168.391111-95.118223 229.717333-142.904889 95.118222-229.717333 95.118222c-86.812444 0-168.391111-33.792-229.717333-95.118222-61.326222-61.326222-95.118222-142.904889-95.118223-229.717333s33.792-168.391111 95.118223-229.717334c14.449778-14.449778 30.151111-27.420444 46.762666-38.798222-10.581333-6.257778-20.593778-13.994667-29.582222-23.096889-23.665778-24.007111-40.049778-56.775111-46.08-92.16-0.113778-0.568889-0.227556-1.251556-0.227555-1.820444L265.102222-2.844444c-2.275556-19.342222 11.605333-36.864 30.947556-39.139556 1.365333-0.113778 2.730667-0.227556 4.096-0.227556 17.635556 0 32.881778 13.198222 35.043555 31.175112l6.371556 55.296c8.988444 51.086222 44.942222 74.296889 74.638222 74.296888h1.820445l42.894222 2.275556c0.682667 0 1.251556 0.113778 1.820444 0.113778 21.959111-4.664889 44.600889-7.054222 67.584-7.054222 23.096889 0 45.738667 2.389333 67.811556 7.054222 0.682667-0.113778 1.365333-0.113778 2.161778-0.227556l42.439111-2.275555h1.820444c39.253333 0 69.632-36.522667 76.8-72.362667l5.347556-56.433778c1.706667-18.204444 17.066667-31.971556 35.043555-31.971555 1.137778 0 2.275556 0 3.413334 0.113777 19.342222 1.820444 33.678222 19.000889 31.744 38.456889l-5.233778 58.481778zM472.177778 189.098667c-2.730667 1.137778-5.688889 1.820444-8.760889 2.161777-42.780444 11.491556-82.033778 34.133333-114.232889 66.332445-48.469333 48.469333-75.207111 112.867556-75.207111 181.475555s26.737778 133.006222 75.207111 181.475556S462.051556 695.751111 530.659556 695.751111s133.006222-26.737778 181.475555-75.207111c48.469333-48.469333 75.207111-112.867556 75.207111-181.475556S760.490667 306.062222 712.021333 257.706667c-32.312889-32.312889-71.68-54.954667-114.688-66.446223-2.389333-0.341333-4.778667-0.910222-7.054222-1.820444-19.342222-4.551111-39.367111-6.940444-59.733333-6.940444-19.911111 0-39.480889 2.275556-58.368 6.599111z"  horiz-adv-x="1024" />
      
      <glyph glyph-name="dongman21" unicode="&#59056;" d="M1001.984 617.472c0 102.912-83.456 186.368-186.368 185.856-59.904 0-115.712-28.672-151.04-77.312-48.64 20.48-100.352 30.72-153.088 30.72h-0.512c-52.224 0-103.936-10.752-152.064-30.72-22.016 30.72-52.736 53.76-87.552 66.56-96.768 34.816-203.264-15.36-238.08-112.128C1.024 591.36 40.96 492.544 125.44 450.56c-49.664-213.504 82.944-426.496 296.448-476.16 213.504-49.664 426.496 82.944 476.16 296.448 13.824 58.88 13.824 120.32 0 179.712 63.488 31.232 103.936 96.256 103.936 166.912z m-783.36-173.056L236.032 506.88l-60.928 22.016c-49.152 17.92-74.24 72.192-56.32 120.832s72.192 74.24 120.832 56.32c20.992-7.68 38.912-22.528 50.176-42.496l31.744-56.32 58.368 28.16c82.944 39.424 179.712 39.424 262.656 0l58.368-28.16 31.744 56.32c25.6 45.568 83.456 60.928 129.024 35.328 45.568-25.6 60.928-83.456 35.328-129.024-11.264-19.456-28.672-34.304-49.664-41.984L786.944 506.88l17.92-61.952c46.08-161.792-47.616-330.752-209.408-376.832s-330.752 47.616-376.832 209.408c-15.872 54.272-15.872 112.128 0 166.912zM511.488 151.04c58.88 0 115.2 23.04 156.672 65.024 14.336 12.8 15.36 34.816 3.072 48.64s-34.816 15.36-48.64 3.072l-3.072-3.072c-59.392-59.392-156.16-59.392-215.552 0-13.312 13.312-34.816 13.312-48.64 0.512l-0.512-0.512c-13.312-13.312-13.312-35.328 0-49.152 41.472-40.96 97.792-64.512 156.672-64.512z"  horiz-adv-x="1024" />
      
      <glyph glyph-name="yonghu1" unicode="&#58898;" d="M659.800861 364.015945h-85.344168c83.956253 32.742182 143.62399 114.212805 143.62399 209.789694a225.296492 225.296492 0 1 1-450.592984 0c0-95.576889 59.617267-177.047512 143.611372-209.789694h-46.974621c-135.296499 0-246.039516-110.692547-246.039516-246.039516s110.692547-245.976429 246.039516-245.976429H659.800861c135.296499 0 246.039516 110.692547 246.039516 245.976429s-110.743017 246.039516-246.039516 246.039516zM654.137789 767.704101a78.455062 37.158276 52.38 1 1 95.781343 124.28484 78.455062 37.158276 52.38 1 1-95.781343-124.28484ZM724.738975 701.580207a78.455062 37.158276 3.23 1 1 156.660857 8.840987 78.455062 37.158276 3.23 1 1-156.660857-8.840987Z"  horiz-adv-x="1024" />
      
      <glyph glyph-name="tuxiangdongmanhua" unicode="&#58963;" d="M781.3632 422.52288l-12.06272 30.0032a28.84608 28.84608 0 0 1-11.48928 13.6704l-27.4432 17.13152c-19.99872 12.47232-17.38752 42.35264 4.49536 51.12832l29.97248 12.0832a28.8768 28.8768 0 0 1 13.70112 11.49952l17.1008 27.4432c12.47232 19.968 42.35264 17.38752 51.15904-4.49536l12.06272-30.0032a28.84608 28.84608 0 0 1 11.48928-13.6704l27.4432-17.1008c19.99872-12.47232 17.38752-42.35264-4.49536-51.17952l-29.97248-12.07296a28.9792 28.9792 0 0 1-13.70112-11.4688l-17.1008-27.45344c-12.47232-19.97824-42.35264-17.36704-51.15904 4.48512M607.3856 652.34944l-8.27392 20.5312a19.68128 19.68128 0 0 1-7.85408 9.35936l-18.76992 11.71456c-13.69088 8.54016-11.88864 28.95872 3.05152 34.99008l20.54144 8.27392c3.8912 1.55648 7.14752 4.3008 9.35936 7.85408l11.71456 18.76992c8.52992 13.66016 28.94848 11.89888 34.97984-3.05152l8.27392-20.54144c1.55648-3.8912 4.3008-7.15776 7.85408-9.35936l18.76992-11.71456c13.69088-8.52992 11.88864-28.95872-3.05152-34.99008l-20.54144-8.27392c-3.8912-1.55648-7.14752-4.32128-9.35936-7.85408l-11.71456-18.76992c-8.52992-13.69088-28.94848-11.88864-34.97984 3.06176M207.9744 20.31616l-10.15808 25.27232c-1.9456 4.7616-5.3248 8.8064-9.66656 11.50976l-23.13216 14.40768c-16.82432 10.51648-14.63296 35.6864 3.7888 43.07968l25.25184 10.17856c4.78208 1.92512 8.8064 5.29408 11.54048 9.64608l14.39744 23.13216c10.48576 16.82432 35.66592 14.63296 43.07968-3.7888l10.15808-25.25184c1.91488-4.78208 5.3248-8.8064 9.66656-11.54048l23.12192-14.39744c16.83456-10.48576 14.61248-35.66592-3.7888-43.07968l-25.2416-10.15808a24.3712 24.3712 0 0 1-11.54048-9.66656l-14.39744-23.10144c-10.51648-16.86528-35.66592-14.6432-43.07968 3.75808M499.23072 459.4176l-1.40288-0.22528a133.86752 133.86752 0 0 1-72.45824-35.96288l-1.24928-1.26976-2.58048-2.88768a130.47808 130.47808 0 0 1-31.87712-80.20992l-0.08192-3.10272 0.08192 1.39264a46.92992 46.92992 0 0 1 11.81696-35.14368l266.81344-278.8352c52.40832-53.12512 137.4208-53.68832 190.21824-1.59744 2.60096 2.56 5.04832 5.18144 7.3728 7.8848 48.29184 55.97184 42.05568 140.4928-13.91616 188.78464a129.26976 129.26976 0 0 1-3.7888 3.15392l-1.0752 0.8192L534.29248 450.6624a48.31232 48.31232 0 0 1-35.06176 8.76544z m3.50208-61.7984l307.52768-224.57344 1.54624-1.30048a72.42752 72.42752 0 0 0 3.52256-106.47552l-1.97632-1.87392a72.83712 72.83712 0 0 0-101.00736 2.59072L451.21536 338.87232l0.11264 1.40288a69.02784 69.02784 0 0 0 15.96416 37.76512l1.37216 1.57696-0.63488-0.59392a72.43776 72.43776 0 0 0 32.95232 18.19648l1.75104 0.39936zM262.5024 757.89312l2.79552-0.12288c16.39424-1.10592 29.61408-9.68704 24.54528-23.61344l0.21504 0.67584-0.4608-1.92512a37.4272 37.4272 0 0 1 12.68736-36.67968l1.6384-1.26976c4.9152-3.3792 11.264-6.48192 20.66432-10.20928l5.44768-2.0992 22.74304-8.37632c6.63552-2.49856 12.20608-4.73088 17.65376-7.10656 23.6544-10.30144 41.86112-22.20032 56.24832-38.47168l2.67264-2.9696a152.69888 152.69888 0 0 0 37.04832-116.91008c-1.14688-9.14432-7.92576-16.55808-17.7152-18.67776a105.6768 105.6768 0 0 1-65.66912-35.7376l0.44032 0.512-2.5088-4.10624a232.8576 232.8576 0 0 1-25.87648-61.56288l-1.3312-5.376-1.18784-5.41696c-1.65888-10.20928-10.5472-17.67424-20.0704-17.5104-36.07552-2.46784-74.88512 3.40992-108.78976 23.808-50.176 30.18752-77.94688 86.6304-75.17184 173.23008l0.1024 5.24288c2.38592 93.696 28.20096 153.0368 69.0176 180.29568 15.7696 10.53696 32.88064 15.2576 47.65696 14.25408z"  horiz-adv-x="1024" />
      
      <glyph glyph-name="wenzhangguanli" unicode="&#58893;" d="M627.2 708.3008v-72.4992l-0.256-3.7888c-0.5632-4.096-6.0416-9.0112-12.544-9.0112H409.6l-3.7376 0.256c-4.1472 0.512-9.0624 6.0416-9.0624 12.544V708.3008H281.6a140.8 140.8 0 0 1-140.8-140.8v-452.3008A140.8 140.8 0 0 1 281.6-25.6h460.8a140.8 140.8 0 0 1 140.8 140.8V567.5008a140.8 140.8 0 0 1-140.8 140.8h-115.2z m76.1856-82.944l0.3584 6.1952 38.656-0.0512c35.328 0 64-28.672 64-64v-452.3008c0-35.328-28.672-64-64-64h-460.8c-35.328 0-64 28.672-64 64V567.5008l0.3072 6.5536A64 64 0 0 0 281.6 631.5008l38.5536 0.0512-0.1536 4.2496c0-45.568 34.2016-83.7632 79.2064-89.0368l8.192-0.512L614.4 546.2016a89.6 89.6 0 0 1 88.9856 79.2064zM358.4 469.3504m38.4 0l230.4 0q38.4 0 38.4-38.4l0 0q0-38.4-38.4-38.4l-230.4 0q-38.4 0-38.4 38.4l0 0q0 38.4 38.4 38.4ZM358.4 290.1504m38.4 0l230.4 0q38.4 0 38.4-38.4l0 0q0-38.4-38.4-38.4l-230.4 0q-38.4 0-38.4 38.4l0 0q0 38.4 38.4 38.4ZM614.4 793.6H409.6a89.6 89.6 0 0 1-89.6-89.6v-68.1984c0-49.5104 40.1408-89.6 89.6-89.6h204.8a89.6 89.6 0 0 1 89.6 89.6V704A89.6 89.6 0 0 1 614.4 793.6zM409.6 716.8h204.8a12.8 12.8 0 0 0 12.8-12.8v-68.1984a12.8 12.8 0 0 0-12.8-12.8H409.6a12.8 12.8 0 0 0-12.8 12.8V704A12.8 12.8 0 0 0 409.6 716.8z"  horiz-adv-x="1024" />
      
      <glyph glyph-name="youjiantou-" unicode="&#58929;" d="M116.9408 334.5408m0 40.96l0 0q0 40.96 40.96 40.96l573.44 0q40.96 0 40.96-40.96l0 0q0-40.96-40.96-40.96l-573.44 0q-40.96 0-40.96 40.96ZM769.82272 376.56576l-203.22304 203.22304a40.96 40.96 0 1 0 57.91744 57.91744l231.71072-231.71072a40.96 40.96 0 0 0 0.45056-58.44992L624.9472 115.87584a40.96 40.96 0 0 0-57.93792 57.91744l202.79296 202.79296z"  horiz-adv-x="1024" />
      
      <glyph glyph-name="arrow1" unicode="&#58895;" d="M1005.226667 338.773333a64 64 0 0 1 0 90.453334L613.034667 821.504a64 64 0 1 1-90.453334-90.538667L805.376 448H64a64 64 0 0 1 0-128h741.546667l-283.050667-282.965333a64 64 0 1 1 90.538667-90.453334L1005.226667 338.773333z"  horiz-adv-x="1024" />
      
      <glyph glyph-name="tuichu" unicode="&#58880;" d="M581.632 198.656l126.976 0 0-194.56q0-33.792-10.24-58.88t-27.136-40.96-39.424-23.552-48.128-7.68l-452.608 0q-24.576 0-48.128 9.728t-41.472 27.136-29.184 40.96-11.264 52.224l0 706.56q0 24.576 11.776 47.104t30.208 39.936 40.96 28.16 45.056 10.752l449.536 0q26.624 0 50.176-11.776t41.472-29.696 28.16-40.448 10.24-44.032l0-188.416-126.976 0 1.024 195.584-452.608 0-1.024-713.728 452.608 0 0 195.584zM1021.952 390.144q37.888-30.72 2.048-60.416-20.48-15.36-44.544-37.888t-50.176-46.592-51.712-47.616-47.104-40.96q-23.552-18.432-40.448-18.432t-16.896 24.576q2.048 14.336 0.512 35.84t-1.536 36.864q0 17.408-12.288 21.504t-29.696 4.096l-40.96 0-62.464 0q-34.816 0-73.216 0.512t-73.216 0.512l-62.464 0-41.984 0q-8.192 0-17.92 1.536t-17.408 6.656-12.288 14.336-4.608 23.552q0 19.456-0.512 46.08t0.512 47.104q0 27.648 13.312 37.888t43.008 9.216l33.792 0 59.392 0q32.768 0 70.144-0.512t71.168-0.512l61.44 0 38.912 0q25.6-1.024 43.52 4.096t17.92 22.528q0 14.336 1.024 32.256t1.024 32.256q0 23.552 12.8 29.696t32.256-9.216q19.456-16.384 45.568-38.4t52.736-45.056 52.736-45.568 47.616-39.936z"  horiz-adv-x="1042" />
      
      <glyph glyph-name="shouyefill" unicode="&#59216;" d="M982.028557 491.594826 573.32303 812.057114c-34.918864 27.694272-89.619352 27.694272-124.538216 0L43.175542 491.422812c-13.933143-11.008903-16.169326-31.134554-5.332437-44.895683s31.134554-16.169326 44.895683-5.332437l13.073072 10.320847 0-387.547791c0-54.872501 56.936671-95.983874 107.852847-95.983874l639.892491 0c50.22812 0 84.1149 38.531161 84.1149 95.983874L927.672098 452.547623l14.449185-11.352931c5.84848-4.644381 12.729044-6.880564 19.781623-6.880564 9.460776 0 18.921552 4.128339 25.286074 12.213002C998.369898 460.460272 995.789686 480.585923 982.028557 491.594826zM607.897867 98.886612l0-66.741475-63.989249 0-63.989249 0-63.989249 0 0 66.741475 0 112.325214c0 37.155048 30.102469 77.234336 95.983874 77.234336 66.053418 0 95.983874-40.079288 95.983874-77.234336L607.897867 98.886612 607.897867 98.886612z"  horiz-adv-x="1024" />
      
      <glyph glyph-name="coffee" unicode="&#58971;" d="M950.857143 530.285714q0 45.714286-32 77.714286t-77.714286 32h-36.571428v-219.428571h36.571428q45.714286 0 77.714286 32t32 77.714285zM0 91.428571h1024q0-60.571429-42.857143-103.428571t-103.428571-42.857143H146.285714q-60.571429 0-103.428571 42.857143T0 91.428571z m1060.571429 438.857143q0-90.857143-64.285715-155.142857T841.142857 310.857143h-36.571428v-18.285714q0-52.571429-37.714286-90.285715t-90.285714-37.714285H274.285714q-52.571429 0-90.285714 37.714285t-37.714286 90.285715V713.142857q0 14.857143 10.857143 25.714286t25.714286 10.857143h658.285714q90.857143 0 155.142857-64.285715T1060.571429 530.285714z"  horiz-adv-x="1097" />
      
      <glyph glyph-name="lingdang" unicode="&#59584;" d="M512-64c49.6 0 88 38.4 88 88H424c0-49.6 38.4-88 88-88z m288.8 286.4V451.2c0 137.6-97.6 252.8-224.8 283.2v28.8c0 32-17.6 60.8-48 67.2-44 10.4-80-23.2-80-66.4v-30.4C320.8 704 223.2 588.8 223.2 451.2v-228.8L136 132.8v-44.8h752v44.8l-87.2 89.6z"  horiz-adv-x="1024" />
      
      <glyph glyph-name="user-fill" unicode="&#59349;" d="M512 384c123.776 0 224 100.224 224 224S635.776 832 512 832a223.936 223.936 0 0 1-224-224C288 484.224 388.224 384 512 384z m0-64c-149.504 0-448-85.76-448-256v-128h896v128c0 170.24-298.496 256-448 256z"  horiz-adv-x="1024" />
      
      <glyph glyph-name="rizhi" unicode="&#58899;" d="M597.333333 212.053333l-4.48-5.12-29.44-91.093333c-5.12-16 3.413333-24.746667 18.986667-19.413333l85.333333 28.373333 8.96 10.24a4.266667 4.266667 0 0 0 1.92 3.2 9.173333 9.173333 0 0 1 3.626667 12.16l-70.4 65.92a11.946667 11.946667 0 0 1-13.866667-4.693333z m-335.786666-208.213333h-38.613334A38.826667 38.826667 0 0 0 184.533333 42.666667V725.333333a39.253333 39.253333 0 0 0 38.826667 39.253334h38.4z m53.973333 0V764.16h485.546667A38.826667 38.826667 0 0 0 839.466667 725.333333v-237.013333L730.026667 362.666667l-85.333334-96.853334a12.373333 12.373333 0 0 1 3.2-14.933333v-1.28l59.306667-54.4a17.92 17.92 0 0 1 21.333333 0l1.706667 1.066667 73.173333 83.626666L837.973333 320l-1.066666-277.333333a39.253333 39.253333 0 0 0-38.826667-39.253334H315.52z"  horiz-adv-x="1024" />
      
      <glyph glyph-name="lingdang1" unicode="&#58881;" d="M593.862 95.418l-169.191 0c-9.444 0-18.438-3.932-24.695-10.902-6.314-6.971-9.441-16.324-8.548-25.676 2.86-29.192 16.324-56.239 38.01-76.018 21.773-20.017 50.161-31.038 79.89-31.038 29.696 0 58.085 11.022 79.83 30.978 21.715 19.84 35.178 46.886 38.068 76.256 0.596 9.474-2.535 18.707-8.639 25.499-6.286 6.971-15.28 10.902-24.724 10.902zM555.02 20.174c-25.082-22.877-66.605-22.818-91.567-0.06-7.596 6.971-13.404 15.429-17.158 24.723l125.823 0c-3.723-9.353-9.474-17.751-17.097-24.663zM818.609 235.657l-62.763 82.928 0 49.268 0 105.715c0 70.745-24.216 136.337-68.183 184.682-26.003 28.626-57.31 49.715-93.055 62.822-3.306 18.944-12.721 36.252-26.926 49.208-32.051 29.251-85.104 29.251-117.096 0-14.357-13.046-23.77-30.383-26.987-49.268-35.714-13.046-67.022-34.135-93.026-62.791-43.938-48.434-68.184-114.026-68.184-184.653l0.179-154.686-62.315-82.451c-8.757-9.353-13.582-21.507-13.582-34.256l0-40.332c0-27.644 22.461-50.043 50.043-50.043l544.812 0c27.611 0 50.011 22.4 50.011 50.043l0 40.332c-0.001 12.75-4.796 24.904-12.927 33.483zM535.776 734.118c-7.387 0.656-19.302 1.906-26.569 1.906-7.298 0-19.689-1.252-27.048-1.906 12.42 20.254 44.384 16.502 53.617 0zM237.427 161.844l-0.12 40.035 62.315 82.45c8.698 9.354 13.524 21.447 13.524 34.256l0 154.983c0 58.056 19.54 111.554 54.986 150.635 17.574 19.362 38.307 34.375 61.541 44.682 48.852 21.745 110.302 21.745 159.096 0 23.321-10.425 43.994-25.438 61.539-44.682 35.449-39.081 54.959-92.579 54.959-150.635l0-154.984c0-12.867 4.826-25.081 12.956-33.54l62.791-82.868 0.509-39.795-544.096-0.536z"  horiz-adv-x="1024" />
      
      <glyph glyph-name="shoucang1" unicode="&#59005;" d="M969.055 497.29c-10.185 28.878-35.828 49.663-66.935 54.24l-219.409 32.151-95.284 194.871C573.647 806.764 543.889 825 511.598 825c-32.212 0-61.93-18.236-75.749-46.449l-95.323-194.889-219.393-32.19c-31.124-4.479-56.791-25.244-66.969-54.284-10.163-29.318-2.59-61.166 19.736-83.113l161.034-158.444L197.583 36.08c-5.239-30.605 8.378-61.994 34.785-80.004 25.825-17.372 60.441-19.278 88.258-4.659l191.012 101.394 191.136-101.413c12.369-6.526 26.247-9.979 40.162-9.979 17.148 0 33.759 5.063 48.113 14.721 26.288 17.933 39.887 49.298 34.644 79.902l-37.334 219.566 161.056 158.445C971.702 436.023 979.273 467.892 969.055 497.29L969.055 497.29zM921.196 442.688 745.204 269.527l40.845-240.252c2.652-15.426-4.136-30.728-17.57-39.902-13.756-9.238-32.309-10.225-46.949-2.514L511.598 98.271 301.824-13.075c-14.799-7.794-33.374-6.749-46.948 2.408-13.576 9.253-20.36 24.579-17.712 39.998l40.867 240.215L102.056 442.71c-11.166 10.964-14.98 26.808-9.98 41.246 5.202 14.783 18.517 25.424 34.842 27.772l240.395 35.282 104.625 213.908c7.108 14.541 22.694 23.941 39.683 23.941 17.046 0 32.631-9.382 39.739-23.918l104.604-213.908 240.334-35.204c16.306-2.409 29.679-13.09 34.863-27.793C936.178 469.519 932.363 453.695 921.196 442.688L921.196 442.688zM921.196 442.688M508.928 503.699c-41.126 0-74.264-12.554-98.441-37.273-40.36-41.267-39.499-101.209-39.44-103.757 0.242-10.93 9.181-19.602 20.064-19.602l0.379 0c11.064 0.202 19.86 9.354 19.703 20.42 0 0.461-0.363 46.07 28.193 75.048 16.324 16.584 39.741 24.978 69.521 24.978 11.088 0 20.081 8.996 20.081 20.083S520.012 503.699 508.928 503.699L508.928 503.699zM508.928 503.699"  horiz-adv-x="1024" />
      
      <glyph glyph-name="user-o" unicode="&#59182;" d="M759.428571 448q26.857143-8 51.142858-21.714286t50.857142-41.714285 45.428572-66 31.428571-98.285715 12.571429-135.142857q0-88-57.142857-150.571428T756-128H268q-80.571429 0-137.714286 62.571429T73.142857 85.142857q0 74.857143 12.571429 135.142857t31.428571 98.285715T162.571429 384.571429t50.857142 41.714285 51.142858 21.714286q-45.142857 71.428571-45.142858 155.428571 0 59.428571 23.142858 113.428572T305.142857 810.285714 398.571429 872.857143 512 896t113.428571-23.142857T718.857143 810.285714t62.571428-93.428571T804.571429 603.428571q0-84-45.142858-155.428571zM512 822.857143q-90.857143 0-155.142857-64.285714T292.571429 603.428571t64.285714-155.142857T512 384t155.142857 64.285714T731.428571 603.428571t-64.285714 155.142858T512 822.857143z m244-877.714286q50.285714 0 86 40.857143T877.714286 85.142857q0 136.571429-44.857143 215.428572T704 383.428571q-82.857143-72.571429-192-72.571428T320 383.428571q-84-4-128.857143-82.857142T146.285714 85.142857q0-58.285714 35.714286-99.142857T268-54.857143h488z"  horiz-adv-x="1024" />
      
      <glyph glyph-name="shoucang2" unicode="&#58914;" d="M887.7 515.8L693 564.6c-3.6 0.9-6.7 3.2-8.7 6.3l-106.5 170c-4.6 7.3-10.8 13.5-18.1 18.1-26.8 16.8-62.2 8.7-79-18.1L374 570.8c-2-3.1-5.1-5.4-8.7-6.3l-194.7-48.8c-8.4-2.1-16.2-6.1-22.9-11.7-24.3-20.3-27.5-56.5-7.2-80.8l33.6-40.2 42.6-3.8c201.6-18 379.4-143.6 464-327.9l18.9-41.1 21-8.4c8-3.2 16.7-4.6 25.4-4 31.6 2.2 55.4 29.5 53.3 61.1l-13.8 200.2c-0.3 3.7 0.9 7.3 3.3 10.2l128.8 153.9c5.6 6.6 9.5 14.5 11.7 22.9 7.7 30.9-10.9 62-41.6 69.7zM337.6 1.9l186.2 75c1.7 0.7 3.5 1 5.4 1 1.8 0 3.6-0.3 5.4-1l107.5-43.3c-76.5 166.7-238 286.2-428.9 303.2l56.4-67.4c2.4-2.8 3.6-6.5 3.3-10.2L259 59.1c-0.6-8.6 0.8-17.3 4-25.4 9-22.3 30.5-35.9 53.2-35.9 7.2 0 14.4 1.3 21.4 4.1z"  horiz-adv-x="1024" />
      
      <glyph glyph-name="lingdang2" unicode="&#58962;" d="M924.96494 235.127947h-40.825995l-9.568998 280.679959C874.569947 718.023876 717.32597 895.99985 513.196 895.99985a370.304946 370.304946 0 0 1-370.623946-367.433946v-293.437957H95.686061A95.685986 95.685986 0 0 1 0.000075 139.441961a95.685986 95.685986 0 0 1 95.685986-95.685986h243.679964v-2.232a169.363975 169.363975 0 0 1 339.047951 0v2.232h246.550964a95.685986 95.685986 0 0 1 95.685985 95.685986 95.685986 95.685986 0 0 1-95.685985 95.685986z m-310.659955-191.371972a105.573985 105.573985 0 0 0-211.466969 0v2.233h210.827969s0.638-1.914 0.638-2.552z m310.659955 65.06699H95.686061a31.894995 31.894995 0 1 0 0 63.789991h78.781988a31.894995 31.894995 0 0 1 31.894996 31.895995V517.082906a314.169954 314.169954 0 0 0 240.171965 308.109954c200.939971 45.609993 364.244947-120.564982 364.244946-309.384954l9.567999-280.679959v-31.894996a31.894995 31.894995 0 0 1 31.895995-31.894995h72.72099a31.894995 31.894995 0 1 0 0-63.789991z"  horiz-adv-x="1024" />
      
      <glyph glyph-name="exit" unicode="&#59775;" d="M0 704v-640c0-70.7 57.3-128 128-128h352c17.7 0 32 14.3 32 32s-14.3 32-32 32H128c-35.3 0-64 28.7-64 64V704c0 35.3 28.7 64 64 64h352c17.7 0 32 14.3 32 32s-14.3 32-32 32H128C57.3 832 0 774.7 0 704zM1013.3 407.7L650.9 735.3c-41.2 37.2-106.9 8-106.9-47.5V557c0-4.4-3.6-8-8-8H224c-17.7 0-32-14.3-32-32v-266c0-17.7 14.3-32 32-32h312c4.4 0 8-3.6 8-8v-130.9c0-55.5 65.8-84.7 106.9-47.5l362.4 327.6c14.1 12.8 14.1 34.8 0 47.5zM256 299V469c0 8.8 7.2 16 16 16h304c17.7 0 32 14.3 32 32V651.1c0 13.9 16.4 21.2 26.7 11.9L938 389.9c3.5-3.2 3.5-8.7 0-11.9L634.7 105c-10.3-9.3-26.7-2-26.7 11.9V251c0 17.7-14.3 32-32 32H272c-8.8 0-16 7.2-16 16z"  horiz-adv-x="1024" />
      
      <glyph glyph-name="chakan2" unicode="&#58882;" d="M943.273421 389.740748C906.84065 575.752232 724.900901 710.766228 510.685052 710.766228c-214.228129 0-396.154575-135.01502-432.589392-321.025481-0.529049-2.765997-0.529049-5.611811 0-8.376785C114.530476 195.33099 296.457946 60.314946 510.685052 60.314946c84.754313 0 166.926824 21.296025 237.682307 61.551868 10.854209 6.196119 14.542204 19.829628 8.197706 30.479175-6.341429 10.599406-20.225647 14.158465-31.172977 8.006348-63.754023-36.307927-138.010237-55.516408-214.709083-55.516408-190.771905 0-352.71932 117.805056-386.970402 280.715403 34.250058 162.89909 196.22101 280.690844 386.970402 280.690844 190.771905 0 352.71932-117.791753 386.969379-280.690844-12.098549-57.384965-41.084721-111.433952-84.026742-156.599617-8.574283-8.997931-8.032954-23.089881 1.174756-31.464619 9.184173-8.356318 23.608697-7.872295 32.207539 1.147126 49.846268 52.396347 83.111906 115.577319 96.265484 182.739974C943.813726 384.140193 943.813726 386.973728 943.273421 389.740748zM328.909032 380.517689c0-100.308567 81.792864-181.669596 182.689832-181.669596 100.872409 0 182.665273 81.362053 182.665273 181.669596 0.001023 100.307543-81.791841 181.634804-182.665273 181.634804l0 0C410.701896 562.152493 328.909032 480.825232 328.909032 380.517689zM648.616494 380.517689c0-75.237565-61.337997-136.257314-137.01763-136.257314l0 0c-75.67861 0-137.042189 61.018725-137.042189 136.257314 0 75.211982 61.362556 136.231731 137.042189 136.231731C587.277474 516.74942 648.616494 455.729671 648.616494 380.517689z"  horiz-adv-x="1024" />
      
      <glyph glyph-name="shezhi" unicode="&#58883;" d="M510.37806 558.196391c-98.010221 0-177.748287-78.842673-177.748287-175.75284 0-96.91426 79.738066-175.763073 177.748287-175.763073 9.537214 0 19.620873 0.978281 31.797194 3.088338 18.196431 3.281743 30.290887 20.538779 26.963095 38.471197-2.924609 15.732309-16.693194 27.152407-32.747845 27.152407-2.071172 0-4.15974-0.196475-6.123464-0.563842-7.937786-1.402953-14.233166-2.056845-19.807115-2.056845-61.159942 0-110.915136 49.201585-110.915136 109.671819 0 60.467163 49.679469 109.661585 110.747313 109.661585 61.116963 0 110.832248-49.194422 110.832248-109.661585 0-5.892197-0.656963-12.0832-2.088568-19.531845-3.327792-17.928325 8.769734-35.189454 26.959002-38.464033 2.006703-0.360204 4.045129-0.546446 6.070252-0.546446 16.204054 0 30.019711 11.43033 32.832779 27.116591 2.13871 11.45182 3.13848 21.435195 3.13848 31.41857 0.042979 46.873564-18.435884 90.990341-52.033074 124.223233C602.407056 539.893536 557.790906 558.196391 510.37806 558.196391zM938.476161 463.20083c-2.185782 11.426237-11.037381 20.499893-22.563902 23.12058-41.909505 9.508561-76.781734 34.929534-98.185206 71.550593-21.334911 36.560684-26.191522 79.099523-13.68979 119.709429 3.52836 11.123338 0.007163 23.235191-8.951883 30.840402-41.860387 35.721573-89.536222 62.938448-141.695163 80.885192-3.152806 1.088798-6.437619 1.639337-9.776667 1.639337-8.256034 0-16.182564-3.431146-21.724791-9.376555-29.236881-31.04404-68.840878-48.140417-111.5107-48.140417-42.673915 0-82.305541 17.125029-111.607914 48.230468-7.877411 8.333806-20.510126 11.512195-31.580253 7.726985-52.483328-18.171871-100.131535-45.416376-141.640927-80.988546-8.815783-7.591909-12.322653-19.620873-8.934486-30.67258 12.586666-40.645722 7.759731-83.180468-13.597693-119.78106-21.306258-36.5965-56.149834-62.006216-98.17395-71.561849-11.540847-2.709715-20.396539-11.812023-22.559808-23.166629-5.228071-27.169803-7.877411-54.346769-7.877411-80.770582 0-26.426883 2.64934-53.603849 7.873318-80.763418 2.174526-11.411911 11.023054-20.488637 22.552645-23.12058 41.913599-9.512654 76.785827-34.922371 98.19237-71.547523 21.349237-36.59343 26.177196-79.128175 13.583366-119.795387-3.363607-10.969842 0.121773-23.013133 8.973372-30.758538 41.84913-35.707246 89.494267-62.920028 141.662417-80.902588 11.466146-3.885494 23.738657-0.549515 31.454386 7.680936 29.29828 31.091112 68.925812 48.216141 111.593588 48.216141s82.302471-17.125029 111.560842-48.183396c5.556553-5.955642 13.494339-9.380648 21.782096-9.380648 3.27765 0 6.537903 0.520863 9.829879 1.599428 52.126194 17.968234 99.774401 45.184085 141.652184 80.912821 8.791224 7.577582 12.308327 19.628036 8.94165 30.758538-12.597923 40.678468-7.745405 83.20605 13.672394 119.773897 21.324678 36.625152 56.192813 62.030775 98.19237 71.547523 11.390421 2.592035 20.23588 11.633968 22.549575 23.106254 5.223978 27.184129 7.870248 54.358025 7.870248 80.770582C946.342316 408.828478 943.697069 436.034097 938.476161 463.20083zM728.572524 106.121202c-26.02677-20.157085-54.736649-36.553521-85.487-48.818869-36.682457 32.144094-83.60207 49.779753-132.792399 49.779753-48.926316 0-95.838765-17.635659-132.767839-49.786916-30.744211 12.262278-59.45716 28.655643-85.491093 48.812729 9.894348 47.441499 1.889023 96.449679-22.763446 138.627291-24.448832 41.966811-63.427588 73.339332-110.186542 88.840374-2.381234 16.343223-3.584642 32.758078-3.584642 48.869011 0 16.043395 1.203408 32.451086 3.584642 48.851615 46.612621 15.389502 85.584214 46.758953 110.186542 88.850607 24.523533 42.024116 32.525788 91.033319 22.74912 138.620128 26.0237 20.149922 54.735625 36.543288 85.494163 48.815799 36.821627-32.201399 83.73817-49.861618 132.778072-49.861618 49.194422 0 96.109941 17.635659 132.792399 49.779753 30.751375-12.269441 59.45716-28.662807 85.48086-48.812729-9.809413-47.63388-1.835811-96.634898 22.667256-138.620128 24.445762-41.966811 63.416332-73.343425 110.182448-88.850607 2.381234-16.386202 3.584642-32.801057 3.584642-48.940642 0.143263-15.443737-1.031493-31.797194-3.499707-48.701189-46.763047-15.504112-85.73771-46.873564-110.186542-88.836281C726.84416 202.810335 718.845998 153.809317 728.572524 106.121202z"  horiz-adv-x="1024" />
      
      <glyph glyph-name="icon" unicode="&#59019;" d="M612.939947 47.851077c-123.957173-79.558987-289.647843-61.574381-393.957537 42.745547-104.309694 104.314811-122.2943 269.985014-42.775222 393.931954 9.323343 14.526855 5.101181 33.859155-9.42465 43.177382-14.531971 9.318226-33.864272 5.101181-43.177382-9.42465C28.334325 369.7873 49.858548 171.335483 174.787862 46.407192c72.723302-72.728418 170.360016-110.412692 268.555455-110.412692 70.495564 0 141.29198 19.429515 203.349361 59.255569 14.526855 9.323343 18.742876 28.655643 9.42465 43.177382C646.793986 52.958398 627.456568 57.179536 612.939947 47.851077zM950.58699 603.715097l-87.151919 87.149872 87.151919 87.151919c12.20702 12.201903 12.20702 31.987528 0 44.189432-12.196787 12.20702-31.992645 12.20702-44.189432 0l-87.151919-87.151919-87.160105 87.157036C719.889771 834.408223 700.099029 834.41334 687.892009 822.20632c-12.201903-12.201903-12.201903-31.987528 0.005117-44.194548l87.154989-87.151919-87.953168-87.953168C554.461067 715.049788 357.577978 723.02032 216.556151 617.920634c-13.8351-10.314926-16.693194-29.891797-6.378268-43.732014 10.30981-13.824867 29.876448-16.693194 43.732014-6.378268 124.720559 92.977601 301.859979 79.971379 412.059823-30.222325 110.00644-110.010533 123.128295-286.978037 30.528294-411.642315-10.29446-13.854543-7.405667-33.432437 6.448876-43.721781 5.599532-4.160763 12.135388-6.164397 18.61087-6.164397 9.55154 0 18.98233 4.359284 25.110911 12.614296 104.690364 140.935869 96.565313 337.607134-15.382339 470.041376l87.954191 87.954191 87.157036-87.154989c6.098905-6.098905 14.099113-9.150404 22.095227-9.150404 7.996115 0 15.996322 3.051499 22.100344 9.155521C962.795033 571.722452 962.795033 591.508078 950.58699 603.715097zM396.458497 409.297153c7.996115 0 15.991206 3.051499 22.095227 9.150404l21.561062 21.555945c12.20702 12.201903 12.20702 31.987528 0.005117 44.194548s-31.982412 12.201903-44.194548 0.005117l-21.561062-21.555945c-12.20702-12.201903-12.20702-31.987528-0.005117-44.194548C380.462175 412.348652 388.457266 409.297153 396.458497 409.297153zM591.018681 245.9826l21.561062 21.555945c12.20702 12.201903 12.20702 31.987528 0.005117 44.194548-12.201903 12.201903-31.982412 12.20702-44.194548 0.005117l-21.561062-21.555945c-12.20702-12.201903-12.20702-31.987528-0.005117-44.194548 6.104021-6.102998 14.099113-9.155521 22.100344-9.155521C576.919569 236.832196 584.91466 239.883695 591.018681 245.9826zM338.01134 326.171943c-4.837168-20.701484-4.679579-64.072271 26.576285-95.321996 22.796192-22.801309 52.245921-29.205159 74.534554-29.205159 8.112772 0 15.284101 0.849344 20.833491 2.065032 16.861016 3.698229 27.532053 20.360723 23.838941 37.216623-3.702322 16.861016-20.36584 27.511587-37.216623 23.838941-0.239454-0.046049-23.223934-4.29277-37.795814 10.279111-14.140045 14.134929-10.131755 35.730783-9.831926 37.231973 3.712555 16.698311-6.698562 33.314757-23.396873 37.216623C358.774223 353.424634 341.93879 342.972585 338.01134 326.171943z"  horiz-adv-x="1024" />
      
      <glyph glyph-name="icon1" unicode="&#59021;" d="M624.375393 55.948499c-125.609813-88.36249-295.736515-73.492828-404.520103 35.303041-110.134353 110.173239-124.039038 281.673218-33.051767 407.788543 10.089799 13.980409 6.934946 33.493835-7.046486 43.586704-13.975293 10.097986-33.488719 6.947226-43.573401-7.048533-109.006669-151.087067-92.384084-356.522949 39.534412-488.481354 73.39459-73.411987 170.102143-111.098307 267.485077-111.098307 75.477019 0 151.36643 22.654976 217.07906 68.868507 14.103206 9.91993 17.496489 29.393447 7.579629 43.499723C657.945977 62.483332 638.4786 65.868429 624.375393 55.948499zM959.12648 806.255023c-0.183172 0.919952-0.527003 1.772366-0.788969 2.662643-0.311085 1.060145-0.555655 2.133593-0.981351 3.163039-0.441045 1.063215-1.043772 2.029216-1.594311 3.028986-0.428765 0.779759-0.769526 1.592264-1.2689 2.340301-2.288113 3.426029-5.229095 6.370081-8.654101 8.659217-0.765433 0.511653-1.595334 0.862647-2.39249 1.298576-0.983397 0.540306-1.930979 1.1328-2.974751 1.566682-1.038656 0.429789-2.122337 0.678452-3.192715 0.991584-0.881067 0.258896-1.722224 0.599657-2.632967 0.780783-2.910283 0.579191-5.872754 0.61296-8.819876 0.357134-0.862647 0.071631-1.691525 0.25992-2.572592 0.25992L700.929953 831.363887c-17.237593 0-31.212886-13.980409-31.212886-31.222095s13.975293-31.222095 31.212886-31.222095l152.250566 0L687.421288 603.1093c-132.484384 112.053052-329.144392 120.017444-469.979978 15.001669-13.818727-10.305717-16.673751-29.865191-6.371104-43.693128 10.292414-13.82282 29.841655-16.678868 43.679825-6.372128 124.557854 92.88448 301.497729 79.900771 411.56659-30.200836 109.875456-109.904109 122.988102-286.714024 30.491455-411.273924-10.282181-13.843286-7.396457-33.402761 6.441713-43.682895 5.593392-4.15667 12.121062-6.15928 18.588357-6.15928 9.540284 0 18.959817 4.355191 25.081235 12.603039 104.566544 140.816143 96.449679 337.313445-15.363919 469.626937L897.316739 724.767104l0-147.016355c0-17.242709 13.975293-31.222095 31.212886-31.222095s31.212886 13.980409 31.212886 31.222095L959.742511 800.140769C959.743534 802.190451 959.527616 804.237063 959.12648 806.255023zM397.125693 409.671683c7.985882 0 15.972786 3.049452 22.068621 9.142218l21.535479 21.536502c12.192693 12.19167 12.192693 31.958876 0.005117 44.155662-12.187577 12.196787-31.94455 12.19167-44.142359 0.005117l-21.535479-21.536502c-12.192693-12.19167-12.192693-31.958876-0.005117-44.155662C381.14779 412.720112 389.134695 409.671683 397.125693 409.671683zM591.455633 246.500393l21.535479 21.536502c12.192693 12.19167 12.192693 31.958876 0.005117 44.155662-12.187577 12.19167-31.94455 12.196787-44.142359 0.005117l-21.535479-21.536502c-12.192693-12.19167-12.192693-31.959899-0.005117-44.155662 6.096858-6.097882 14.08274-9.147334 22.073738-9.147334C577.372893 237.358175 585.358775 240.407628 591.455633 246.500393zM338.748121 326.620152c-4.831029-20.683065-4.673439-64.014966 26.544563-95.238085 22.769586-22.781866 52.184523-29.179576 74.446549-29.179576 8.102538 0 15.265682 0.848321 20.808932 2.062985 16.84055 3.694135 27.499307 20.342304 23.811312 37.183877-3.698229 16.845667-20.341281 27.517727-37.172621 23.818475-0.23843-0.051165-23.196305-4.293793-37.751812 10.269901-14.122649 14.122649-10.119475 35.700083-9.819646 37.199227 3.708462 16.683984-6.690376 33.286104-23.369244 37.183877C359.485421 353.843166 342.670453 343.40442 338.748121 326.620152z"  horiz-adv-x="1024" />
      
      <glyph glyph-name="dian" unicode="&#60446;" d="M512 272a112 112 0 1 1 0 224 112 112 0 0 1 0-224z"  horiz-adv-x="1024" />
      
      <glyph glyph-name="arrow" unicode="&#58919;" d="M741.3 383.7c-0.2 10.7-4.6 20.8-12.1 28.3L355.6 785.6c-16.2 16.2-42.5 16.2-58.7 0-16.2-16.2-16.2-42.5 0-58.7l344.2-344.2-197.3-197.3c-16.2-16.2-16.2-42.5 0-58.7 16.2-16.2 42.5-16.2 58.7 0l226.7 226.7c2.5 2.5 4.6 5.2 6.4 8.3 0.3 0.6 0.7 1.2 1 1.8 0.8 1.5 1.5 3 2.1 4.6 0.5 1.3 0.9 2.5 1.2 3.8 0.9 3.2 1.3 6.5 1.4 9.9v1.9zM385.2 68c-16.2 16.2-42.5 16.2-58.7 0l-29.3-29.3c-16.2-16.2-16.2-42.5 0-58.7 16.2-16.2 42.5-16.2 58.7 0l29.3 29.3c16.2 16.2 16.2 42.5 0 58.7z"  horiz-adv-x="1024" />
      
      <glyph glyph-name="sousuo" unicode="&#59577;" d="M797.525333 143.733333c62.069333 72.736 97.28 165.002667 97.28 262.186667C894.816 629.472 713.621333 810.666667 490.08 810.666667 266.538667 810.666667 85.333333 629.461333 85.333333 405.930667 85.333333 182.389333 266.538667 1.173333 490.069333 1.173333a404.693333 404.693333 0 0 1 118.208 17.546667 32 32 0 0 1-18.666666 61.216 340.693333 340.693333 0 0 0-99.541334-14.762667C301.888 65.184 149.333333 217.738667 149.333333 405.930667 149.333333 594.112 301.888 746.666667 490.069333 746.666667 678.261333 746.666667 830.826667 594.112 830.826667 405.930667c0-89.28-35.381333-173.696-97.141334-237.322667a36.992 36.992 0 0 1 0.384-51.925333l149.973334-149.973334a32 32 0 0 1 45.258666 45.248L797.525333 143.733333z"  horiz-adv-x="1024" />
      
      <glyph glyph-name="yongyan" unicode="&#58885;" d="M659.655431 374.411985q23.970037 6.71161 46.022472 13.423221 19.17603 5.752809 39.310861 11.505618t33.558052 10.546816l-13.423221-50.816479q-5.752809-21.093633-10.546816-31.640449-9.588015-25.88764-22.531835-47.940075t-24.449438-38.35206q-13.423221-19.17603-27.805243-35.475655l-117.932584-35.475655 96.838951-17.258427q-19.17603-16.299625-41.228464-33.558052-19.17603-14.382022-43.625468-30.202247t-51.29588-29.243446-59.925094-13.902622-62.801498 4.314607q-34.516854 4.794007-69.033708 16.299625 10.546816 16.299625 23.011236 36.434457 10.546816 17.258427 25.40824 40.749064t31.161049 52.254682q46.022472 77.662921 89.168539 152.449438t77.662921 135.191011q39.310861 69.992509 75.745318 132.314607-45.06367-51.775281-94.921348-116.014981-43.146067-54.651685-95.88015-129.917603t-107.385768-164.434457q-11.505618-18.217228-25.88764-42.187266t-30.202247-50.816479-32.599251-55.131086-33.078652-55.131086q-38.35206-62.322097-78.621723-130.397004 0.958801 20.134831 7.670412 51.775281 5.752809 26.846442 19.17603 67.116105t38.35206 94.921348q16.299625 34.516854 24.928839 53.692884t13.423221 29.722846q4.794007 11.505618 7.670412 15.340824-4.794007 5.752809-1.917603 23.011236 1.917603 15.340824 11.026217 44.58427t31.161049 81.977528q22.052434 53.692884 58.007491 115.535581t81.018727 122.726592 97.797753 117.932584 107.865169 101.153558 110.262172 72.389513 106.906367 32.11985q0.958801-33.558052-6.71161-88.689139t-19.17603-117.932584-25.88764-127.520599-27.805243-117.453184z"  horiz-adv-x="1024" />
      
      <glyph glyph-name="yuedu" unicode="&#58937;" d="M979.222 480.526C894.954 563.98 776.31 703.996 509.958 703.996c-266.316 0-384.962-140.016-469.23-223.47-19.86-19.682-30.788-45.784-30.788-73.534 0-27.728 10.93-53.85 30.788-73.51 84.27-83.476 202.896-223.47 469.23-223.47 266.368 0 384.996 139.994 469.264 223.47 19.86 19.66 30.79 45.784 30.79 73.51C1010.01 434.744 999.082 460.844 979.222 480.526zM940.882 371.718C862.556 294.162 756.802 164 509.958 164c-246.81 0-352.564 130.164-430.89 207.718-9.548 9.468-14.8 22.01-14.8 35.276 0 13.288 5.252 25.806 14.8 35.252 78.344 77.578 184.098 207.764 430.89 207.764 246.826 0 352.58-130.186 430.924-207.764 9.55-9.446 14.802-21.966 14.802-35.252C955.684 393.728 950.432 381.188 940.882 371.718zM509.974 560.004c-84.868 0-153.928-68.652-153.928-152.988 0-84.358 69.06-153.01 153.928-153.01 84.872 0 153.93 68.652 153.93 153.01C663.904 491.352 594.846 560.004 509.974 560.004zM509.974 307.992c-54.912 0-99.6 44.428-99.6 99.024 0 54.574 44.69 98.978 99.6 98.978 54.912 0 99.6-44.404 99.6-98.978C609.576 352.42 564.888 307.992 509.974 307.992z"  horiz-adv-x="1024" />
      
      <glyph glyph-name="riqi_o" unicode="&#60337;" d="M341.333333 597.333333h384V682.666667h42.666667v-85.333334h128v-554.666666H170.666667V597.333333h128V682.666667h42.666666v-85.333334zM213.333333 554.666667v-469.333334h640V554.666667H213.333333z m213.333334-85.333334v-42.666666H298.666667v42.666666h128z m170.666666 0v-42.666666h-128v42.666666h128z m170.666667 0v-42.666666h-128v42.666666h128z m-341.333333-256v-42.666666H298.666667v42.666666h128z m170.666666 0v-42.666666h-128v42.666666h128z m170.666667 0v-42.666666h-128v42.666666h128z m-341.333333 128v-42.666666H298.666667v42.666666h128z m170.666666 0v-42.666666h-128v42.666666h128z m170.666667 0v-42.666666h-128v42.666666h128z"  horiz-adv-x="1024" />
      
      <glyph glyph-name="leixing" unicode="&#58900;" d="M516.8 454.7h324.6c11.3 0 20.5-9.2 20.5-20.5s-9.2-20.5-20.5-20.5H516.8c-11.3 0-20.5 9.2-20.5 20.5s9.2 20.5 20.5 20.5zM516.8 290.9h324.6c11.3 0 20.5-9.2 20.5-20.5s-9.2-20.5-20.5-20.5H516.8c-11.3 0-20.5 9.2-20.5 20.5 0 11.4 9.2 20.5 20.5 20.5zM516.8 127.2h324.6c11.3 0 20.5-9.2 20.5-20.5s-9.2-20.5-20.5-20.5H516.8c-11.3 0-20.5 9.2-20.5 20.5s9.2 20.5 20.5 20.5zM411.3 391.7H206.6c-12.2 0-22 9.9-22 22V618.4c0 12.1 9.8 22 22 22h204.7c12.2 0 22-9.9 22-22v-204.6c0-12.2-9.8-22.1-22-22.1z m-182.7 44h160.7V596.4H228.6v-160.7zM411.3 64.3H206.6c-12.2 0-22 9.9-22 22V290.9c0 12.1 9.8 22 22 22h204.7c12.2 0 22-9.9 22-22v-204.7c0-12.1-9.8-21.9-22-21.9z m-182.7 44h160.7V268.9H228.6v-160.6zM516.8 618.4h324.6c11.3 0 20.5-9.2 20.5-20.5s-9.2-20.5-20.5-20.5H516.8c-11.3 0-20.5 9.2-20.5 20.5s9.2 20.5 20.5 20.5z"  horiz-adv-x="1024" />
      
      <glyph glyph-name="biaoqian" unicode="&#59428;" d="M420.8-7.2c-34.4 0-68.8 14.4-97.6 43.2l-160 161.6c-26.4 26.4-40.8 60.8-40 97.6 0 36.8 15.2 72 40.8 96.8l373.6 373.6c8 8 16.8 9.6 22.4 9.6h310.4c17.6 0 32-14.4 32-32V432c0-5.6-1.6-14.4-9.6-22.4l-373.6-373.6c-29.6-28.8-64-43.2-98.4-43.2z m144.8 734.4L196.8 358.4c-16.8-16-26.4-39.2-26.4-63.2s9.6-47.2 26.4-64l160.8-161.6c38.4-38.4 88-38.4 127.2 0l368.8 368.8V727.2h-288zM672.8 441.6c-57.6 0-104 46.4-104 104s46.4 104 104 104 104-46.4 104-104-46.4-104-104-104z m0 160c-31.2 0-56-24.8-56-56s24.8-56 56-56 56 24.8 56 56-24.8 56-56 56z"  horiz-adv-x="1024" />
      
      <glyph glyph-name="zuozhe" unicode="&#59003;" d="M789.504 5.632H319.488c-18.432 0-33.28-14.848-33.28-33.28s14.848-33.28 33.28-33.28h470.016c18.432 0 33.28 14.848 33.28 33.28s-14.848 33.28-33.28 33.28zM731.648 503.808c68.096 118.272 79.36 283.136 79.872 289.792 1.024 12.288-5.632 24.576-16.384 30.72-10.752 6.144-24.064 6.144-34.816-0.512-24.576-15.872-241.152-156.16-287.744-235.52-68.096-114.688-235.52-420.864-237.056-423.936-1.536-2.56-2.048-5.12-3.072-7.68l-91.648-158.72c-9.216-15.872-3.584-36.352 12.288-45.568 5.12-3.072 10.752-4.608 16.384-4.608 11.264 0 22.528 6.144 28.672 16.896L291.84 126.464c58.368 39.936 371.2 258.048 439.808 377.344z m-201.728 51.2c23.04 39.424 122.368 115.2 206.336 173.056-9.216-54.272-27.648-130.56-61.952-190.976-39.936-68.608-190.976-189.952-310.272-278.016 54.272 98.816 126.464 229.376 165.888 295.936z"  horiz-adv-x="1024" />
      
      <glyph glyph-name="shuxie" unicode="&#58936;" d="M221.866667 158.549333l120.32 0.170667c9.045333 0 17.749333 3.584 24.064 10.069333l279.210666 279.210667a33.8432 33.8432 0 0 1 0 48.128l-120.149333 120.149333c-13.312 13.312-34.986667 13.312-48.298667 0L197.802667 337.066667c-6.485333-6.314667-9.898667-15.018667-10.069334-24.064v-120.32a34.0992 34.0992 0 0 1 34.133334-34.133334zM256.170667 298.666667l245.077333 245.077333 71.850667-71.850667-245.248-245.077333H256l0.170667 71.850667zM626.688 676.352c19.285333 19.285333 52.565333 19.285333 71.850667 0a50.8928 50.8928 0 0 0 0-71.850667l-44.373334-44.373333 48.298667-48.298667 44.373333 44.373334c46.421333 46.421333 46.421333 122.026667 0 168.448C724.309333 747.008 694.272 759.466667 662.528 759.466667s-61.781333-12.458667-84.138667-34.816l-44.373333-44.373334 48.298667-48.298666 44.373333 44.373333zM861.013333 77.824H221.866667c-18.773333 0-34.133333-15.36-34.133334-34.133333s15.36-34.133333 34.133334-34.133334h639.146666c18.773333 0 34.133333 15.36 34.133334 34.133334s-15.36 34.133333-34.133334 34.133333z"  horiz-adv-x="1024" />
      
      <glyph glyph-name="jiantouzuo" unicode="&#58969;" d="M257.243317 592.943776c-13.846356 0-25.071002-11.224646-25.071002-25.071002s11.224646-25.071002 25.071002-25.071002c13.845333 0 25.071002 11.224646 25.071002 25.071002S271.089673 592.943776 257.243317 592.943776zM257.243317 545.308873c-12.44238 0-22.562878 10.121522-22.562878 22.563902 0 12.443403 10.120498 22.563902 22.562878 22.563902s22.562878-10.120498 22.562878-22.563902C279.806195 555.430394 269.685697 545.308873 257.243317 545.308873zM255.843434 586.577788l2.801812 0 0-20.205181-2.801812 0 0 20.205181ZM255.941672 569.27368l20.203134 0 0-2.801812-20.203134 0 0 2.801812ZM239.460302 433.249681C378.354676 560.134533 517.179464 687.019385 656.052349 813.771207c57.18849 52.247968 142.42785-32.586163 85.012186-85.016279C617.487008 615.877091 493.910505 503.03814 370.332978 390.155187 494.544955 273.37446 618.711905 156.458657 742.945371 39.635975c56.576553-53.15564-28.662807-138.079822-85.059258-84.96716C518.404362 85.858716 378.943077 217.048617 239.460302 348.238518 216.39498 370.03494 215.805556 411.725458 239.460302 433.249681z"  horiz-adv-x="1024" />
      
      <glyph glyph-name="jiantouyou" unicode="&#58925;" d="M312.888889-99.555556c-17.066667 0-28.444444 5.688889-39.822222 17.066667-22.755556 22.755556-17.066667 56.888889 5.688889 79.644445l364.088888 329.955555c11.377778 11.377778 17.066667 22.755556 17.066667 34.133333 0 11.377778-5.688889 22.755556-17.066667 34.133334L273.066667 708.266667c-22.755556 22.755556-28.444444 56.888889-5.688889 79.644444 22.755556 22.755556 56.888889 28.444444 79.644444 5.688889l364.088889-312.888889c34.133333-28.444444 56.888889-73.955556 56.888889-119.466667s-17.066667-85.333333-51.2-119.466666l-364.088889-329.955556c-11.377778-5.688889-28.444444-11.377778-39.822222-11.377778z"  horiz-adv-x="1024" />
      
      <glyph glyph-name="pinglun" unicode="&#59015;" d="M628.363636 290.909091c-18.618182 0-34.909091 16.290909-34.909091 34.909091S609.745455 360.727273 628.363636 360.727273h41.890909c18.618182 0 34.909091-16.290909 34.909091-34.909091s-13.963636-34.909091-34.909091-34.909091H628.363636z m-325.818181 0c-18.618182 0-34.909091 16.290909-34.909091 34.909091S283.927273 360.727273 302.545455 360.727273h160.581818c18.618182 0 34.909091-16.290909 34.909091-34.909091s-16.290909-34.909091-34.909091-34.909091H302.545455z m0 209.454545c-18.618182 0-34.909091 16.290909-34.909091 34.909091S283.927273 570.181818 302.545455 570.181818h372.363636c18.618182 0 34.909091-16.290909 34.909091-34.909091S693.527273 500.363636 674.909091 500.363636H302.545455z m202.472727-507.345454l-104.727273-69.818182c-48.872727-32.581818-114.036364-18.618182-144.290909 30.254545-2.327273 4.654545-4.654545 6.981818-6.981818 11.636364l-18.618182 39.563636c-111.709091 13.963636-195.490909 107.054545-195.490909 218.763637V623.709091C34.909091 733.090909 116.363636 826.181818 225.745455 842.472727c95.418182 13.963636 190.836364 18.618182 286.254545 18.618182s190.836364-6.981818 286.254545-18.618182c109.381818-16.290909 190.836364-109.381818 190.836364-218.763636v-400.290909c0-116.363636-90.763636-214.109091-207.127273-221.090909-90.763636-4.654545-179.2-9.309091-269.963636-9.309091h-6.981818zM474.763636 58.181818c4.654545 4.654545 11.636364 6.981818 18.618182 6.981818h16.290909c88.436364 0 176.872727 2.327273 265.309091 9.309091 79.127273 4.654545 141.963636 72.145455 141.963637 151.272728V626.036364c0 76.8-55.854545 139.636364-130.327273 148.945454-90.763636 9.309091-181.527273 16.290909-274.618182 16.290909s-183.854545-6.981818-276.945455-18.618182c-74.472727-9.309091-130.327273-74.472727-130.327272-148.945454v-400.290909c0-79.127273 62.836364-146.618182 141.963636-151.272727h9.309091c11.636364 0 23.272727-6.981818 27.927273-18.618182l27.927272-55.854546c0-2.327273 2.327273-2.327273 2.327273-4.654545 11.636364-16.290909 32.581818-20.945455 48.872727-9.309091l111.709091 74.472727z"  horiz-adv-x="1024" />
      
      <glyph glyph-name="hashjinghao" unicode="&#59098;" d="M128 554.666667m42.666667 0l682.666666 0q42.666667 0 42.666667-42.666667l0 0q0-42.666667-42.666667-42.666667l-682.666666 0q-42.666667 0-42.666667 42.666667l0 0q0 42.666667 42.666667 42.666667ZM422.613333 810.666667H426.666667a38.613333 38.613333 0 0 0 38.4-42.453334L387.84-4.266667a42.666667 42.666667 0 0 0-42.453333-38.4H341.333333a38.613333 38.613333 0 0 0-38.4 42.453334L380.16 772.266667a42.666667 42.666667 0 0 0 42.453333 38.4zM678.613333 810.666667H682.666667a38.613333 38.613333 0 0 0 38.4-42.453334L643.84-4.266667a42.666667 42.666667 0 0 0-42.453333-38.4H597.333333a38.613333 38.613333 0 0 0-38.4 42.453334L636.16 772.266667a42.666667 42.666667 0 0 0 42.453333 38.4zM128 298.666667m42.666667 0l682.666666 0q42.666667 0 42.666667-42.666667l0 0q0-42.666667-42.666667-42.666667l-682.666666 0q-42.666667 0-42.666667 42.666667l0 0q0 42.666667 42.666667 42.666667Z"  horiz-adv-x="1024" />
      
      <glyph glyph-name="unfav" unicode="&#59429;" d="M960 352C960 334.336 945.664 320 928 320l-320 0C590.272 320 576 334.336 576 352l0 0C576 369.664 590.272 384 608 384l320 0C945.664 384 960 369.664 960 352L960 352zM608 256C555.008 256 512 299.072 512 352S555.008 448 608 448l263.872 0c54.976 138.432 6.464 253.312-88.768 300.544C685.248 797.12 557.248 751.424 512 646.912 466.752 751.424 338.752 797.184 240.896 748.544 136.704 696.896 86.848 564.544 169.216 408.64 227.648 297.536 331.264 213.952 512 64.064c93.248 77.376 165.696 137.024 222.272 191.936L608 256z"  horiz-adv-x="1024" />
      
      <glyph glyph-name="a-icon_buxihuanxinsui" unicode="&#58973;" d="M899.84 713.386667a277.589333 277.589333 0 0 1-197.12 81.493333c-71.68 0-139.093333-26.88-190.72-75.52a278.016 278.016 0 0 1-190.72 75.52c-74.666667 0-144.64-29.013333-197.12-81.493333a278.869333 278.869333 0 0 1 0-394.24l316.586667-316.586667a100.821333 100.821333 0 0 1 142.506666 0l316.586667 316.586667a278.869333 278.869333 0 0 1 0 394.24z m-66.986667-340.48l-309.76-309.76c-5.973333-5.973333-15.786667-5.973333-21.76 0l-310.613333 310.613333C115.626667 448 109.226667 576.853333 183.466667 652.373333c36.693333 37.12 85.76 57.6 137.813333 57.6 51.626667 0 100.266667-20.053333 136.96-56.746666L399.36 527.786667l-16.64-33.706667 32.426667-11.093333 197.546666-67.413334L512 213.333333l145.066667 203.093334 12.8 17.92-22.613334 10.24-174.08 80.213333 59.733334 88.746667c8.106667 11.946667 17.066667 23.04 27.306666 32.853333 27.733333 27.733333 62.293333 50.346667 100.693334 58.453333 71.253333 14.933333 141.653333-8.533333 188.16-61.866666 65.28-74.666667 54.186667-199.68-16.213334-270.08z"  horiz-adv-x="1024" />
      
      <glyph glyph-name="wenbenshuru" unicode="&#58887;" d="M943.104 679.936q-8.192-9.216-15.36-16.384l-12.288-12.288q-6.144-6.144-11.264-10.24l-138.24 139.264q8.192 8.192 20.48 19.456t20.48 17.408q20.48 16.384 44.032 14.336t37.888-9.216q15.36-8.192 34.304-28.672t29.184-43.008q5.12-14.336 6.656-33.792t-15.872-36.864zM551.936 566.272l158.72 158.72 138.24-138.24q-87.04-87.04-158.72-157.696-30.72-29.696-59.904-58.88t-53.248-52.224-39.424-38.4l-18.432-18.432q-7.168-7.168-16.384-14.336t-20.48-12.288-31.232-12.288-41.472-13.824-40.96-12.288-29.696-6.656q-19.456-2.048-20.992 3.584t1.536 25.088q1.024 10.24 5.12 30.208t8.192 40.448 8.704 38.4 7.68 25.088q5.12 11.264 10.752 19.456t15.872 18.432zM899.072 417.792q21.504 0 40.96-10.24t19.456-41.984l0-232.448q0-28.672-10.752-52.736t-29.184-41.984-41.984-27.648-48.128-9.728l-571.392 0q-24.576 0-48.128 10.752t-41.472 29.184-29.184 43.52-11.264 53.76l0 570.368q0 20.48 11.264 42.496t29.184 39.936 40.448 29.696 45.056 11.776l238.592 0q28.672 0 40.448-20.992t11.776-42.496-11.776-41.472-40.448-19.968l-187.392 0q-21.504 0-34.816-14.848t-13.312-36.352l0-481.28q0-20.48 13.312-34.304t34.816-13.824l474.112 0q21.504 0 36.864 13.824t15.36 34.304l0 190.464q0 14.336 6.656 24.576t16.384 16.384 21.504 8.704 23.04 2.56z"  horiz-adv-x="1024" />
      
      <glyph glyph-name="wancheng" unicode="&#58888;" d="M857.4 174.29999999999995c-4-84-73.5-151.2-158.3-151.2H324.8c-84.8 0-154.3 67.1-158.3 151.2h-0.2V597.7h0.2c4 84.1 73.5 151.3 158.3 151.3H640l-68.3-57.7H324.8C269.3 691.1 224 645.7 224 590v-408c0-55.7 45.3-101.1 100.8-101.1H699.1c55.6 0 100.8 45.4 100.8 101.1V467.5l57.6 56.8v-350h-0.1zM861.5 672.4L789 730.1c-3.3 3.3-8.7 3.3-11.9 0.1L488.4 370.1l-157.1 157a8.39 8.39 0 0 1-11.9 0l-57.7-57.7c-3.3-3.3-3.3-8.7-0.1-11.9L497.1 222c0.9-0.7 1.6-1.3 3-1.9 3.4-1.5 6.6-0.6 9 1.9l352.5 438.6c3.2 3.1 3.2 8.5-0.1 11.8z m0 0"  horiz-adv-x="1024" />
      
      <glyph glyph-name="wanchengdingdan" unicode="&#60952;" d="M819.2 793.6h-60.928A153.6 153.6 0 0 1 614.4 896H409.6a153.6 153.6 0 0 1-143.872-102.4H204.8a153.6 153.6 0 0 1-153.6-153.6v-614.4a153.6 153.6 0 0 1 153.6-153.6h614.4a153.6 153.6 0 0 1 153.6 153.6V640a153.6 153.6 0 0 1-153.6 153.6zM409.6 793.6h204.8a51.2 51.2 0 0 0 0-102.4H409.6a51.2 51.2 0 0 0 0 102.4z m460.8-768a51.2 51.2 0 0 0-51.2-51.2H204.8a51.2 51.2 0 0 0-51.2 51.2V640a51.2 51.2 0 0 0 51.2 51.2h60.928A153.6 153.6 0 0 1 409.6 588.8h204.8a153.6 153.6 0 0 1 143.872 102.4H819.2a51.2 51.2 0 0 0 51.2-51.2zM691.2 504.32l-234.496-234.496L332.8 393.728a51.2 51.2 0 0 1-72.192-72.192l160.256-160.256a51.2 51.2 0 0 1 72.192 0l270.848 270.848a51.2 51.2 0 0 1-72.704 72.192z"  horiz-adv-x="1024" />
      
      <glyph glyph-name="wanchengrenwu" unicode="&#60951;" d="M832 844.8h-51.2a51.2 51.2 0 0 1 0-102.4h51.2a51.2 51.2 0 0 0 51.2-51.2v-665.6a51.2 51.2 0 0 0-51.2-51.2h-614.4a51.2 51.2 0 0 0-51.2 51.2V691.2a51.2 51.2 0 0 0 51.2 51.2h51.2a51.2 51.2 0 0 1 0 102.4h-51.2a153.6 153.6 0 0 1-153.6-153.6v-665.6a153.6 153.6 0 0 1 153.6-153.6h614.4a153.6 153.6 0 0 1 153.6 153.6V691.2a153.6 153.6 0 0 1-153.6 153.6zM422.4 640a51.2 51.2 0 0 1 51.2 51.2V844.8a51.2 51.2 0 0 1-102.4 0v-153.6a51.2 51.2 0 0 1 51.2-51.2zM627.2 640a51.2 51.2 0 0 1 51.2 51.2V844.8a51.2 51.2 0 0 1-102.4 0v-153.6a51.2 51.2 0 0 1 51.2-51.2zM302.08 289.28l119.296-119.296a51.2 51.2 0 0 1 72.192 0l256 256a51.2 51.2 0 0 1-72.192 72.192l-219.648-220.16-83.456 83.456a51.2 51.2 0 0 1-72.192-72.192z"  horiz-adv-x="1024" />
      
      <glyph glyph-name="yanjing" unicode="&#58897;" d="M511.466 626.431c169.452 0 315.308-99.39 383.565-242.84h66.514c-72.09 177.91-246.293 303.527-450.08 303.527-203.754 0-377.957-125.617-450.046-303.526h66.515c68.255 143.449 214.111 242.84 383.532 242.84zM511.466 140.752c-169.42 0-315.277 99.39-383.532 242.84H61.419C133.507 205.65 307.71 80.034 511.466 80.034c203.786 0 377.99 125.617 450.079 303.558H895.03c-68.257-143.45-214.112-242.84-383.565-242.84zM349.594 383.576c0-89.412 72.474-161.886 161.885-161.886 89.414 0 161.886 72.474 161.886 161.886 0 89.414-72.472 161.886-161.886 161.886-89.412 0-161.885-72.472-161.885-161.886z m263.084 0c0-55.88-45.32-101.197-101.199-101.197s-101.166 45.318-101.166 101.197c0 55.88 45.287 101.2 101.166 101.2s101.199-45.32 101.199-101.2z"  horiz-adv-x="1024" />
      
      <glyph glyph-name="yanjing1" unicode="&#59087;" d="M512.022187 349.582222c-184.177778 0-368.071111 55.921778-499.114667 167.537778a37.575111 37.575111 0 0 0-3.498667 53.162667 37.944889 37.944889 0 0 0 53.418667 3.470222c231.082667-198.826667 668.302222-198.826667 898.389333 0a37.944889 37.944889 0 0 0 53.418667-3.470222c13.767111-15.644444 12.231111-39.452444-3.498667-53.191111C880.093298 405.504 696.199964 349.582222 512.022187 349.582222z m-136.760889-164.522666a30.833778 30.833778 0 0 0-6.741334 0c-10.325333 1.422222-19.626667 7.111111-25.543111 15.644444-5.944889 8.561778-7.964444 19.228444-5.632 29.354667l24.945778 146.631111a37.973333 37.973333 0 0 0 43.918222 30.805333 37.831111 37.831111 0 0 0 30.947556-43.747555l-24.945778-146.602667a37.376 37.376 0 0 0-36.949333-32.085333z m561.009778 74.581333c-9.955556 0-19.512889 4.039111-26.453334 11.178667l-123.022222 124.245333a37.176889 37.176889 0 0 0 16.042667 64.455111 37.546667 37.546667 0 0 0 37.091555-12.259556l123.050667-124.245333c14.592-14.563556 14.592-38.144 0-52.707555-7.224889-6.826667-16.782222-10.638222-26.737778-10.666667z m-848.497778 0a38.997333 38.997333 0 0 0-24.945778 10.666667 37.176889 37.176889 0 0 0 0 52.707555l123.022222 124.245333a37.518222 37.518222 0 0 0 67.470222-14.136888 37.205333 37.205333 0 0 0-15.815111-38.058667l-123.022222-124.245333a37.006222 37.006222 0 0 0-26.709333-11.178667z m562.744889-74.581333a37.376 37.376 0 0 0-36.693334 30.833777l-24.945777 146.631111a37.176889 37.176889 0 0 0 9.756444 38.826667 37.546667 37.546667 0 0 0 39.424 7.68c13.539556-5.319111 22.755556-17.92 23.694222-32.341333l24.945778-146.631111c1.820444-9.728-0.341333-19.768889-6.030222-27.904-5.688889-8.135111-14.364444-13.653333-24.177778-15.36a30.805333 30.805333 0 0 0-5.973333-1.706667z"  horiz-adv-x="1024" />
      
      <glyph glyph-name="weixin" unicode="&#59195;" d="M352.814545 510.603636m-33.512727 0a33.512727 33.512727 0 1 1 67.025455 0 33.512727 33.512727 0 1 1-67.025455 0ZM502.690909 511.534545m-33.512727 0a33.512727 33.512727 0 1 1 67.025454 0 33.512727 33.512727 0 1 1-67.025454 0ZM576.232727 361.658182m-23.272727 0a23.272727 23.272727 0 1 1 46.545455 0 23.272727 23.272727 0 1 1-46.545455 0ZM694.458182 359.796364m-23.272727 0a23.272727 23.272727 0 1 1 46.545454 0 23.272727 23.272727 0 1 1-46.545454 0ZM512 896C229.003636 896 0 666.996364 0 384s229.003636-512 512-512 512 229.003636 512 512S794.996364 896 512 896z m-87.505455-630.225455c-26.996364 0-48.407273 5.585455-75.403636 11.17091l-75.403636-37.236364 21.410909 64.232727c-53.992727 37.236364-85.643636 85.643636-85.643637 145.221818 0 102.4 96.814545 182.458182 215.04 182.458182 105.192727 0 198.283636-64.232727 216.901819-150.807273-6.516364 0.930909-13.963636 0.930909-20.48 0.93091-102.4 0-182.458182-76.334545-182.458182-170.356364 0-15.825455 2.792727-30.72 6.516363-44.683636-7.447273 0-13.963636-0.930909-20.48-0.93091z m314.647273-75.403636l15.825455-53.992727-58.647273 32.581818c-21.410909-5.585455-42.821818-11.170909-64.232727-11.170909-102.4 0-182.458182 69.818182-182.458182 155.461818s80.058182 155.461818 182.458182 155.461818c96.814545 0 182.458182-69.818182 182.458182-155.461818 0-47.476364-31.650909-90.298182-75.403637-122.88z"  horiz-adv-x="1024" />
      
      <glyph glyph-name="QQ" unicode="&#59198;" d="M512 896C229.003636 896 0 666.996364 0 384s229.003636-512 512-512 512 229.003636 512 512S794.996364 896 512 896z m210.385455-641.396364c-7.447273-9.309091-26.996364 1.861818-41.89091 32.581819-3.723636-13.963636-13.032727-36.305455-34.443636-64.232728 35.374545-8.378182 44.683636-42.821818 33.512727-61.44-8.378182-13.032727-26.996364-24.203636-59.578181-24.203636-58.647273 0-83.781818 15.825455-95.883637 26.996364-1.861818 2.792727-5.585455 3.723636-10.24 3.723636-4.654545 0-7.447273-0.930909-10.24-3.723636-11.170909-11.170909-37.236364-26.996364-95.883636-26.996364-32.581818 0-52.130909 11.170909-59.578182 24.203636-12.101818 18.618182-1.861818 53.061818 33.512727 61.44-20.48 27.927273-29.789091 50.269091-34.443636 64.232728-13.963636-30.72-34.443636-42.821818-41.890909-32.581819-5.585455 8.378182-8.378182 26.065455-7.447273 38.167273 3.723636 46.545455 34.443636 85.643636 53.061818 106.123636-2.792727 5.585455-8.378182 40.029091 14.894546 63.301819v1.861818c0 92.16 65.163636 158.254545 148.014545 158.254545 81.92 0 148.014545-66.094545 148.014546-158.254545v-1.861818c23.272727-23.272727 17.687273-57.716364 14.894545-63.301819 17.687273-20.48 49.338182-59.578182 53.061818-106.123636 0.930909-12.101818-0.930909-29.789091-7.447272-38.167273z"  horiz-adv-x="1024" />
      
      <glyph glyph-name="github-fill" unicode="&#59525;" d="M511.6 819.7C264.3 819.8 64 619.6 64 372.5 64 177.1 189.3 11 363.8-50c23.5-5.9 19.9 10.8 19.9 22.2v77.5c-135.7-15.9-141.2 73.9-150.3 88.9C215 170 171.5 178 184.5 193c30.9 15.9 62.4-4 98.9-57.9 26.4-39.1 77.9-32.5 104-26 5.7 23.5 17.9 44.5 34.7 60.8-140.6 25.2-199.2 111-199.2 213 0 49.5 16.3 95 48.3 131.7-20.4 60.5 1.9 112.3 4.9 120 58.1 5.2 118.5-41.6 123.2-45.3 33 8.9 70.7 13.6 112.9 13.6 42.4 0 80.2-4.9 113.5-13.9 11.3 8.6 67.3 48.8 121.3 43.9 2.9-7.7 24.7-58.3 5.5-118 32.4-36.8 48.9-82.7 48.9-132.3 0-102.2-59-188.1-200-212.9 23.5-23.2 38.1-55.4 38.1-91v-112.5c0.8-9 0-17.9 15-17.9 177.1 59.7 304.6 227 304.6 424.1 0 247.2-200.4 447.3-447.5 447.3z"  horiz-adv-x="1024" />
      
      </font>
</defs>
</svg>
